<svg xmlns="http://www.w3.org/2000/svg" viewBox="0 0 1680 2400">
<path d="M0 0 C14.47 5.77 27.81 5.18 43.07 4.19 C85.88 1.61 133.25 9.78 166.86 38.35 C187.56 56.74 203.2 82.94 207.36 110.66 C208.35 117.05 209.11 121.14 214.3 125.27 C216.12 126.52 217.96 127.75 219.8 128.96 C248.59 150.88 262.59 182.95 267.93 218.02 C273.7 261.36 265.51 305.07 255.62 347.21 C255.53 347.58 255.53 347.58 255.09 349.46 C254.59 351.59 254.08 353.72 253.57 355.85 C253.43 356.47 253.43 356.47 252.69 359.57 C251.8 362.96 251.8 362.96 250.69 366.09 C249.82 368.9 249.63 371.04 249.8 373.96 C255.75 376.42 261.75 378.69 267.79 380.89 C345.72 409.16 345.72 409.16 365.8 427.96 C366.54 428.63 367.27 429.29 368.03 429.98 C390.77 451.5 405.12 483.69 405.99 514.91 C406.09 520.81 406.08 526.72 406.06 532.63 C406.07 534.9 406.07 537.16 406.07 539.43 C406.08 545.54 406.08 551.65 406.07 557.76 C406.07 564.16 406.07 570.56 406.08 576.97 C406.08 588.39 406.07 599.81 406.06 611.23 C406.05 621.59 406.06 631.95 406.07 642.31 C406.08 654.36 406.08 666.41 406.07 678.46 C406.07 684.84 406.07 691.21 406.08 697.58 C406.08 703.56 406.08 709.54 406.07 715.52 C406.06 717.72 406.07 719.92 406.07 722.11 C406.08 725.1 406.07 728.09 406.06 731.08 C406.06 731.96 406.07 732.84 406.07 733.75 C406.03 739.73 406.03 739.73 403.8 741.96 C403.14 740.64 402.48 739.32 401.8 737.96 C401.14 737.96 400.48 737.96 399.8 737.96 C399.44 737.17 399.07 736.38 398.7 735.57 C388.31 713.94 374.18 693.33 358.8 674.96 C357.37 673.19 355.93 671.42 354.49 669.65 C347.2 660.76 339.82 651.97 332.07 643.47 C330.82 642.08 329.57 640.68 328.35 639.26 C323.29 633.37 317.87 627.88 312.37 622.4 C311.46 621.49 310.56 620.58 309.63 619.65 C305.07 615.1 300.47 610.68 295.58 606.49 C292.97 604.24 290.46 601.88 287.93 599.52 C269.88 582.86 269.88 582.86 264.31 583.05 C261.8 583.96 261.8 583.96 260.32 586.3 C259.93 587.32 259.53 588.34 259.12 589.39 C258.89 589.96 258.89 589.96 257.75 592.8 C257.29 593.99 256.84 595.18 256.37 596.4 C251.55 608.69 245.93 618.92 237.74 629.27 C237.14 630.04 236.54 630.82 235.93 631.61 C214.9 658.45 182.85 670.84 150.85 679.36 C148.8 679.96 148.8 679.96 146.8 680.96 C143.87 681.31 140.94 681.62 137.99 681.9 C115.29 684.18 115.29 684.18 110.8 686.96 C109.11 690.34 109.62 694.18 109.6 697.89 C109.6 698.35 109.6 698.35 109.58 700.64 C109.57 702.57 109.57 704.51 109.56 706.44 C109.55 709.33 109.52 712.22 109.49 715.1 C109.31 747.18 116.8 782.11 139.77 805.92 C141.11 807.27 142.46 808.62 143.8 809.96 C144.53 810.76 145.26 811.56 146.01 812.38 C163.89 831.62 192.68 840.39 216.49 849.65 C218.77 850.54 221.05 851.44 223.33 852.33 C227.76 854.07 232.18 855.8 236.61 857.53 C243.88 860.38 251.12 863.27 258.36 866.18 C262.38 867.79 266.41 869.39 270.44 870.98 C286.39 877.29 302.19 883.85 317.8 890.96 C318.42 891.24 319.04 891.52 319.68 891.82 C343.02 902.44 365.84 913.36 386.96 928.06 C392.54 931.86 397.8 934.96 404.8 934.96 C405.53 938.24 405.93 941.28 405.94 944.64 C405.95 945.56 405.95 946.47 405.96 947.42 C405.96 947.92 405.96 947.92 405.96 950.45 C405.97 950.98 405.97 950.98 405.98 953.69 C405.99 957.3 406 960.9 406.01 964.51 C406.02 967.1 406.03 969.69 406.04 972.28 C406.06 978.64 406.08 985 406.1 991.36 C406.12 998.89 406.15 1006.42 406.18 1013.95 C406.24 1031.86 406.29 1049.77 406.35 1067.68 C406.37 1076.09 406.4 1084.49 406.42 1092.89 C406.53 1129.61 406.64 1166.33 406.73 1203.05 C406.74 1207 406.75 1210.96 406.76 1214.91 C406.76 1215.68 406.76 1216.45 406.76 1217.24 C406.8 1231.65 406.84 1246.07 406.89 1260.48 C406.95 1281.35 407 1302.23 407.03 1323.1 C407.03 1325.06 407.03 1327.02 407.04 1328.97 C407.04 1329.92 407.04 1330.88 407.04 1331.86 C407.05 1338.43 407.07 1345 407.09 1351.57 C407.38 1446.33 407.38 1446.33 399.8 1492.96 C399.7 1493.62 399.59 1494.28 399.48 1494.95 C390.84 1548.65 376.99 1601.2 354.8 1650.96 C354.23 1652.27 353.65 1653.58 353.07 1654.89 C338.11 1688.71 321.01 1720.97 300.8 1751.96 C300.57 1752.32 300.57 1752.32 299.41 1754.11 C293.29 1763.48 286.88 1772.64 280.38 1781.75 C278.78 1783.99 277.2 1786.23 275.61 1788.48 C268.39 1798.63 260.8 1808.4 252.8 1817.96 C252.3 1818.56 251.8 1819.17 251.28 1819.79 C246.5 1825.5 241.67 1831.16 236.73 1836.75 C235.16 1838.55 233.61 1840.37 232.06 1842.21 C226.69 1848.57 221.27 1854.71 215.25 1860.48 C213.29 1862.47 211.48 1864.47 209.66 1866.59 C205.14 1871.81 200.26 1876.65 195.37 1881.52 C194.46 1882.43 193.56 1883.34 192.63 1884.27 C188.1 1888.79 183.53 1893.18 178.67 1897.34 C175.52 1900.08 172.52 1902.97 169.49 1905.84 C164.27 1910.76 158.95 1915.41 153.34 1919.89 C150.8 1921.96 148.4 1924.12 145.99 1926.34 C140.96 1930.92 135.64 1935.09 130.26 1939.26 C126.35 1942.3 122.52 1945.44 118.7 1948.6 C111.17 1954.75 103.54 1960.76 95.8 1966.65 C94.9 1967.34 93.99 1968.03 93.06 1968.74 C85.07 1974.8 76.96 1980.71 68.79 1986.54 C66.99 1987.83 65.18 1989.13 63.38 1990.43 C59.87 1992.96 56.34 1995.46 52.8 1997.96 C52.06 1998.49 51.31 1999.02 50.54 1999.56 C19.11 2021.75 -13.03 2043.06 -45.95 2062.95 C-51.94 2066.57 -57.86 2070.26 -63.76 2074.02 C-79.54 2084.06 -95.79 2093.33 -112 2102.65 C-117.7 2105.93 -123.38 2109.24 -129.01 2112.65 C-137.4 2117.74 -145.95 2122.57 -154.48 2127.42 C-157.99 2129.41 -161.48 2131.41 -164.98 2133.42 C-206.65 2157.27 -248.83 2180.12 -291.25 2202.61 C-297.75 2206.06 -304.26 2209.52 -310.74 2213.02 C-321.99 2219.08 -333.23 2225.1 -344.71 2230.72 C-349.92 2233.28 -354.97 2236.03 -359.91 2239.1 C-363.72 2240.54 -367.1 2239.41 -370.78 2237.9 C-371.63 2237.47 -372.48 2237.04 -373.36 2236.59 C-374.33 2236.1 -375.29 2235.62 -376.29 2235.12 C-377.31 2234.59 -378.33 2234.06 -379.38 2233.52 C-379.92 2233.25 -379.92 2233.25 -382.63 2231.87 C-389.66 2228.3 -396.65 2224.66 -403.62 2220.96 C-408.46 2218.39 -413.31 2215.86 -418.19 2213.36 C-440.94 2201.65 -440.94 2201.65 -451.45 2195.73 C-457.9 2192.1 -464.42 2188.59 -470.95 2185.09 C-505.2 2166.67 -505.2 2166.67 -520.62 2157.49 C-523.68 2155.68 -526.75 2153.88 -529.82 2152.09 C-541.54 2145.23 -553.25 2138.35 -564.88 2131.34 C-573.27 2126.28 -581.7 2121.33 -590.2 2116.46 C-606.68 2107 -623 2097.27 -639.13 2087.21 C-639.93 2086.72 -640.72 2086.23 -641.54 2085.73 C-642.26 2085.27 -642.98 2084.82 -643.72 2084.35 C-644.35 2083.96 -644.98 2083.57 -645.62 2083.17 C-647.2 2081.96 -647.2 2081.96 -649.2 2078.96 C-649.33 2076.85 -649.33 2076.85 -649.18 2074.42 C-648.43 2056.78 -652.16 2045.09 -661.39 2030.19 C-664.25 2025.46 -664.25 2025.46 -663.99 2022.88 C-663.2 2020.96 -663.2 2020.96 -660.2 2018.96 C-658.35 2018.76 -656.49 2018.65 -654.63 2018.59 C-643.58 2017.79 -634.9 2013.23 -627.44 2005.04 C-614.95 1988.41 -619.06 1964.76 -620.45 1945.4 C-620.51 1944.46 -620.58 1943.52 -620.65 1942.55 C-621.58 1929.31 -622.63 1916.08 -623.89 1902.87 C-624.05 1901.22 -624.2 1899.56 -624.35 1897.9 C-626.88 1870.56 -635.29 1847.73 -648.82 1823.99 C-651.57 1819.14 -654.18 1814.24 -656.7 1809.27 C-657.03 1808.61 -657.37 1807.95 -657.72 1807.28 C-667.12 1788.46 -658.98 1762.12 -654.95 1742.71 C-654.68 1741.43 -654.42 1740.15 -654.15 1738.83 C-649.66 1717.58 -643.04 1696.83 -636.51 1676.15 C-636.16 1675.06 -635.82 1673.96 -635.47 1672.84 C-630.49 1657.03 -625.4 1641.27 -620.09 1625.58 C-618.06 1619.6 -616.06 1613.63 -614.27 1607.57 C-613.99 1606.66 -613.72 1605.74 -613.44 1604.79 C-612.96 1603.19 -612.51 1601.58 -612.07 1599.97 C-611.48 1597.95 -611.48 1597.95 -610.2 1594.96 C-608.04 1594 -608.04 1594 -606.2 1593.96 C-602.12 1600.99 -600.61 1608.02 -599.2 1615.96 C-599.03 1616.88 -598.86 1617.8 -598.69 1618.75 C-598.14 1621.86 -597.6 1624.97 -597.07 1628.09 C-596.9 1629.07 -596.73 1630.06 -596.55 1631.08 C-594.71 1642.15 -594.04 1653.08 -594.1 1664.29 C-594.1 1665.4 -594.1 1666.52 -594.1 1667.67 C-594.11 1671.18 -594.12 1674.7 -594.13 1678.21 C-594.14 1680.61 -594.14 1683.02 -594.15 1685.42 C-594.16 1691.27 -594.17 1697.11 -594.2 1702.96 C-590.34 1702.26 -589.03 1700.86 -586.75 1697.66 C-586.54 1697.36 -586.54 1697.36 -585.51 1695.84 C-585.07 1695.21 -584.64 1694.59 -584.19 1693.94 C-579.93 1687.73 -576.04 1681.32 -572.26 1674.8 C-571.23 1673.02 -570.18 1671.24 -569.14 1669.46 C-564.46 1661.44 -560.2 1653.26 -556.14 1644.91 C-555.26 1643.09 -554.36 1641.29 -553.45 1639.49 C-547.69 1627.7 -543.45 1615.36 -539.2 1602.96 C-539.06 1602.58 -539.06 1602.58 -538.39 1600.63 C-536.85 1596.11 -535.46 1591.56 -534.2 1586.96 C-534.09 1586.58 -534.09 1586.58 -533.56 1584.65 C-520.71 1537.01 -525.22 1485.42 -537.26 1438.12 C-537.52 1437.12 -537.77 1436.13 -538.02 1435.11 C-538.25 1434.23 -538.48 1433.36 -538.71 1432.46 C-539.35 1429.15 -539.93 1426.17 -538.13 1423.21 C-533.39 1420.15 -526.77 1420.81 -521.28 1420.75 C-519.76 1420.72 -518.24 1420.69 -516.72 1420.66 C-514.37 1420.62 -512.02 1420.59 -509.67 1420.56 C-488.22 1420.3 -472.18 1415.04 -456.96 1399.72 C-455.06 1397.82 -453.12 1395.97 -451.18 1394.12 C-442.77 1386.03 -435.56 1377.75 -429.2 1367.96 C-426.83 1368.19 -426.83 1368.19 -424.2 1368.96 C-422.94 1370.84 -422.94 1370.84 -422.08 1373.29 C-421.76 1374.2 -421.44 1375.11 -421.11 1376.04 C-419.6 1380.88 -418.27 1385.73 -417.07 1390.65 C-416.81 1391.7 -416.55 1392.75 -416.29 1393.83 C-414.36 1401.84 -412.86 1409.74 -412.2 1417.96 C-412.16 1418.36 -412.16 1418.36 -411.98 1420.38 C-411.43 1432.41 -416.19 1444.58 -419.98 1455.83 C-425.91 1473.49 -431.18 1491.29 -436.16 1509.24 C-437.05 1512.42 -437.95 1515.6 -438.87 1518.77 C-442.2 1530.44 -444.86 1542.22 -447.45 1554.07 C-450.19 1566.67 -453.16 1579.19 -456.26 1591.71 C-460.95 1610.72 -465.19 1629.8 -469.25 1648.95 C-470.4 1654.35 -471.55 1659.75 -472.7 1665.15 C-472.89 1666.05 -473.08 1666.95 -473.28 1667.87 C-476.41 1682.54 -479.78 1697.13 -483.39 1711.7 C-484.47 1716.07 -485.51 1720.45 -486.56 1724.83 C-487.54 1728.94 -488.53 1733.05 -489.52 1737.15 C-489.95 1738.94 -490.38 1740.74 -490.81 1742.53 C-493.61 1754.19 -496.8 1765.72 -500.13 1777.24 C-501.99 1783.69 -503.79 1790.15 -505.49 1796.64 C-513.22 1826.2 -522.42 1855.4 -531.63 1884.52 C-531.76 1884.91 -531.76 1884.91 -532.38 1886.88 C-534.71 1894.26 -537.07 1901.64 -539.54 1908.98 C-551.19 1943.8 -551.79 1975.65 -547.2 2011.96 C-546.95 2014 -546.71 2016.03 -546.47 2018.07 C-545.26 2027.9 -543.59 2037.48 -541.16 2047.09 C-540.27 2050.68 -539.53 2054.27 -538.82 2057.9 C-534.45 2078.25 -526.32 2094.67 -512.2 2109.96 C-511.38 2110.85 -510.57 2111.73 -509.73 2112.64 C-485.26 2138.11 -448.08 2158.1 -412.32 2159.34 C-399.46 2158.86 -388.25 2153.99 -379.33 2144.7 C-375.87 2140.26 -373.07 2135.39 -370.31 2130.48 C-367.28 2125.21 -364.02 2121.64 -359.2 2117.96 C-347.19 2107.92 -338.59 2098.09 -336.99 2081.9 C-336.59 2065.13 -344.26 2049.38 -350.76 2034.34 C-351.9 2031.67 -353.04 2029 -354.17 2026.33 C-355.05 2024.29 -355.96 2022.27 -356.88 2020.25 C-363.48 2004.47 -360.38 1987.39 -357.17 1971.13 C-353.15 1950.54 -353.92 1928.84 -354.2 1907.96 C-354.2 1907.05 -354.21 1906.14 -354.22 1905.2 C-354.39 1889.86 -356.34 1874.8 -358.47 1859.63 C-361.62 1836.94 -361.62 1836.94 -357.51 1826.15 C-357.2 1825.31 -356.89 1824.47 -356.57 1823.6 C-345.17 1793.25 -330.54 1764.07 -316.36 1734.95 C-299.41 1700.14 -284.22 1664.63 -269.2 1628.96 C-268.86 1628.16 -268.52 1627.35 -268.17 1626.52 C-259.88 1606.83 -251.96 1586.98 -244.06 1567.12 C-242.09 1562.19 -240.11 1557.27 -238.11 1552.36 C-232.3 1538.08 -226.75 1523.71 -221.34 1509.27 C-220.59 1507.26 -219.83 1505.26 -219.07 1503.26 C-212.55 1486.05 -207.41 1469.93 -207.82 1451.34 C-207.83 1450.08 -207.85 1448.83 -207.86 1447.54 C-208 1439.83 -208.47 1432.33 -209.63 1424.71 C-210.27 1420.47 -210.68 1416.23 -211.07 1411.96 C-212.04 1401.83 -213.31 1391.74 -214.59 1381.65 C-214.77 1380.25 -214.95 1378.86 -215.12 1377.46 C-215.17 1377.11 -215.17 1377.11 -215.39 1375.34 C-216.1 1369.73 -216.78 1364.12 -217.45 1358.5 C-222.01 1320.3 -228.41 1282.69 -235.92 1244.98 C-236.32 1242.98 -236.71 1240.99 -237.11 1239 C-239.69 1226.05 -242.29 1213.13 -245.4 1200.29 C-246.39 1196.14 -247.22 1191.97 -248.01 1187.77 C-249.63 1179.41 -251.54 1171.13 -253.51 1162.84 C-272.06 1084.29 -272.06 1084.29 -267.27 1072.72 C-265.75 1070.27 -264.05 1068.16 -262.2 1065.96 C-261.31 1064.86 -260.43 1063.75 -259.55 1062.64 C-257.51 1060.07 -255.46 1057.52 -253.41 1054.97 C-224.15 1018.54 -201.07 975.23 -187.9 930.34 C-187.18 927.92 -186.45 925.51 -185.71 923.09 C-180.46 905.67 -176.61 887.84 -173.63 869.9 C-171.25 855.85 -167.16 842.68 -162.2 829.34 C-149.6 795.3 -149.97 760.26 -149.85 724.49 C-149.83 720.94 -149.8 717.38 -149.76 713.82 C-149.71 709.47 -149.69 705.12 -149.68 700.77 C-149.68 699.12 -149.66 697.48 -149.64 695.84 C-149.6 693.56 -149.6 691.28 -149.61 689 C-149.6 687.71 -149.6 686.42 -149.59 685.09 C-150.2 681.96 -150.2 681.96 -152.59 680.05 C-155.06 679.02 -156.95 678.49 -159.6 678.27 C-160.42 678.19 -161.24 678.12 -162.08 678.04 C-162.94 677.97 -163.81 677.9 -164.7 677.84 C-165.6 677.75 -166.5 677.67 -167.43 677.58 C-171.13 677.25 -174.8 676.97 -178.52 676.86 C-208.47 675.92 -237.32 660.09 -260.2 641.96 C-260.74 641.53 -261.28 641.1 -261.84 640.66 C-282.55 623.95 -294.69 596.52 -299.2 570.96 C-299.38 569.91 -299.57 568.86 -299.76 567.77 C-300.91 560.3 -300.07 553.14 -298.95 545.71 C-298.84 544.96 -298.73 544.21 -298.61 543.44 C-296.45 530.03 -291.68 517.18 -287.25 504.39 C-286.57 502.43 -285.91 500.48 -285.24 498.52 C-284.85 497.38 -284.46 496.24 -284.05 495.06 C-283.25 492.14 -282.85 489.96 -283.2 486.96 C-285.2 484.96 -285.2 484.96 -287.99 484.91 C-296.21 485.6 -304.27 486.63 -312.38 488.09 C-313.61 488.3 -314.84 488.52 -316.11 488.74 C-378.22 499.87 -438.8 516.66 -497.21 540.74 C-500.15 541.94 -503.1 543.12 -506.05 544.29 C-530.83 554.24 -554.8 566.12 -577.83 579.6 C-579.94 580.81 -582.06 581.99 -584.21 583.13 C-603.54 593.51 -621.61 606.56 -639.26 619.55 C-641.14 620.92 -643.04 622.26 -644.95 623.59 C-652.55 628.91 -659.66 634.6 -666.68 640.67 C-668.98 642.63 -671.34 644.51 -673.7 646.4 C-678.45 650.26 -682.96 654.35 -687.43 658.54 C-690.23 661.17 -693.08 663.73 -695.99 666.24 C-700.79 670.42 -705.27 674.89 -709.76 679.4 C-710.16 679.8 -710.16 679.8 -712.22 681.85 C-717.08 686.72 -721.72 691.72 -726.2 696.96 C-727.17 698.08 -728.14 699.2 -729.12 700.31 C-736.07 708.34 -742.73 716.54 -749.2 724.96 C-749.67 725.58 -750.15 726.2 -750.65 726.84 C-767.34 748.52 -781.92 771.73 -794.99 795.75 C-796.64 798.77 -798.31 801.76 -799.99 804.75 C-802.07 808.48 -804.13 812.22 -806.2 815.96 C-806.56 816.62 -806.92 817.27 -807.3 817.95 C-814.37 830.76 -820.43 844.02 -826.52 857.32 C-828.17 860.9 -829.82 864.48 -831.48 868.05 C-832.53 870.31 -833.58 872.57 -834.63 874.84 C-835.14 875.92 -835.64 877 -836.16 878.12 C-838.74 883.7 -841.17 889.31 -843.45 895.02 C-848.25 906.13 -856.1 911.45 -865.91 917.95 C-873.42 922.96 -879.79 928.63 -886.2 934.96 C-887.04 935.73 -887.88 936.51 -888.75 937.3 C-906.1 953.54 -918 975.44 -925.46 997.77 C-925.95 999.24 -926.46 1000.71 -926.99 1002.17 C-928.93 1007.69 -930.06 1013.15 -931.07 1018.9 C-933.25 1030.31 -936.28 1037.56 -944.82 1045.64 C-980.03 1079.94 -997.8 1130.56 -998.54 1178.75 C-998.96 1221.59 -987.46 1259.96 -973.41 1299.89 C-968.3 1314.44 -963.56 1328.9 -960.2 1343.96 C-959.97 1344.97 -959.74 1345.97 -959.51 1347.01 C-945.98 1409.23 -950.42 1470.74 -979.93 1527.77 C-980.37 1528.64 -980.82 1529.52 -981.27 1530.43 C-981.47 1530.81 -981.47 1530.81 -982.47 1532.73 C-983.38 1535.52 -983.1 1537.19 -982.2 1539.96 C-978.09 1542.01 -973.89 1541.41 -969.6 1540.27 C-959.72 1536.6 -951.56 1530.2 -943.2 1523.96 C-942.49 1523.43 -941.78 1522.91 -941.05 1522.37 C-937.64 1519.82 -934.23 1517.27 -930.84 1514.7 C-927.77 1512.38 -924.65 1510.13 -921.51 1507.9 C-906.61 1497.04 -894.72 1484.76 -884.49 1469.4 C-882.39 1466.31 -880.78 1464.23 -877.2 1462.96 C-874.2 1465.7 -872.47 1468 -870.97 1471.77 C-870.58 1472.72 -870.19 1473.68 -869.8 1474.67 C-869.39 1475.72 -868.99 1476.76 -868.57 1477.84 C-868.14 1478.94 -867.71 1480.05 -867.26 1481.19 C-865.88 1484.77 -864.53 1488.36 -863.2 1491.96 C-862.76 1493.12 -862.33 1494.27 -861.89 1495.46 C-854.12 1516.55 -849.33 1537.91 -845.2 1559.96 C-845.06 1560.68 -844.92 1561.4 -844.78 1562.14 C-843.92 1566.76 -843.08 1571.39 -842.26 1576.02 C-842.06 1577.15 -841.86 1578.28 -841.65 1579.44 C-839.24 1593.72 -838.99 1607.89 -839.01 1622.34 C-839.01 1622.8 -839.01 1622.8 -839.01 1625.17 C-839.12 1665.53 -847.13 1703.47 -862.2 1740.96 C-863.18 1743.46 -864.16 1745.96 -865.13 1748.46 C-865.51 1749.42 -865.89 1750.38 -866.29 1751.37 C-867.17 1753.89 -867.74 1756.33 -868.2 1758.96 C-864.31 1758.38 -861.58 1757.23 -858.24 1755.19 C-857.77 1754.9 -857.77 1754.9 -855.39 1753.45 C-854.4 1752.84 -853.41 1752.22 -852.38 1751.59 C-851.36 1750.95 -850.33 1750.32 -849.27 1749.67 C-834.78 1740.67 -820.2 1731.18 -807.61 1719.58 C-805.2 1717.96 -805.2 1717.96 -802.54 1718.36 C-801.77 1718.56 -800.99 1718.76 -800.2 1718.96 C-799.84 1736.15 -800.79 1753.28 -801.74 1770.44 C-801.92 1773.69 -802.09 1776.93 -802.26 1780.18 C-803.64 1806.94 -805.74 1833.53 -809.39 1860.09 C-809.71 1862.47 -810.03 1864.84 -810.34 1867.22 C-811.24 1874 -812.16 1880.78 -813.18 1887.55 C-817.06 1913.81 -816.27 1939.83 -810.58 1965.76 C-810.39 1966.65 -810.2 1967.55 -810 1968.46 C-809.82 1969.26 -809.64 1970.05 -809.46 1970.87 C-809.2 1972.96 -809.2 1972.96 -810.2 1975.96 C-814.12 1975.38 -816.28 1973.49 -819.26 1970.96 C-819.75 1970.55 -819.75 1970.55 -822.21 1968.48 C-823.2 1967.65 -824.18 1966.82 -825.2 1965.96 C-826.96 1964.52 -828.73 1963.08 -830.51 1961.65 C-835.41 1957.64 -840.21 1953.53 -845 1949.4 C-848.53 1946.37 -852.09 1943.39 -855.7 1940.46 C-860.54 1936.53 -865.28 1932.48 -870.01 1928.4 C-873.48 1925.41 -876.99 1922.5 -880.57 1919.65 C-886.09 1915.18 -891.22 1910.34 -896.36 1905.45 C-899.44 1902.52 -902.54 1899.65 -905.77 1896.9 C-911.73 1891.73 -917.24 1886.07 -922.8 1880.48 C-924.75 1878.53 -926.71 1876.58 -928.66 1874.63 C-934.19 1869.11 -939.69 1863.61 -944.75 1857.65 C-947.25 1854.72 -949.93 1851.95 -952.57 1849.15 C-957.25 1844.14 -961.72 1839.03 -966.02 1833.68 C-968.39 1830.72 -970.82 1827.81 -973.26 1824.9 C-996.36 1797.2 -1017.62 1767.88 -1036.2 1736.96 C-1036.72 1736.1 -1037.24 1735.24 -1037.77 1734.36 C-1082.3 1660.99 -1112.4 1580.89 -1131.38 1456.96 C-1131.47 1456.2 -1131.55 1455.44 -1131.64 1454.66 C-1134.17 1431.87 -1134.34 1409.16 -1134.33 1386.26 C-1134.33 1381.64 -1134.33 1377.03 -1134.34 1372.41 C-1134.34 1364.34 -1134.34 1356.27 -1134.34 1348.2 C-1134.34 1336.19 -1134.34 1324.19 -1134.35 1312.18 C-1134.36 1289.5 -1134.36 1266.81 -1134.36 1244.12 C-1134.36 1226.6 -1134.36 1209.08 -1134.37 1191.57 C-1134.37 1186.52 -1134.37 1181.47 -1134.37 1176.43 C-1134.37 1175.17 -1134.37 1173.92 -1134.37 1172.62 C-1134.38 1137.35 -1134.38 1102.08 -1134.38 1066.8 C-1134.38 1065.46 -1134.38 1064.12 -1134.38 1062.77 C-1134.38 1056.71 -1134.38 1050.65 -1134.38 1044.59 C-1134.38 1041.89 -1134.38 1039.19 -1134.38 1036.49 C-1134.38 1035.13 -1134.38 1033.78 -1134.38 1032.43 C-1134.38 989.64 -1134.39 946.86 -1134.4 904.07 C-1134.4 893.29 -1134.41 882.5 -1134.41 871.72 C-1134.41 871.39 -1134.41 871.39 -1134.41 869.71 C-1134.42 833.83 -1134.42 797.96 -1134.42 762.09 C-1134.42 757.05 -1134.42 752 -1134.42 746.96 C-1134.42 745.71 -1134.42 744.47 -1134.42 743.19 C-1134.42 723.2 -1134.43 703.21 -1134.44 683.22 C-1134.45 663.14 -1134.45 643.05 -1134.44 622.97 C-1134.44 611.04 -1134.44 599.11 -1134.45 587.18 C-1134.46 579.21 -1134.45 571.23 -1134.45 563.26 C-1134.44 558.72 -1134.44 554.18 -1134.45 549.64 C-1134.46 545.5 -1134.46 541.37 -1134.45 537.23 C-1134.45 535.75 -1134.45 534.27 -1134.45 532.79 C-1134.57 498.32 -1124.88 466.24 -1102.2 439.96 C-1101.43 439.05 -1100.67 438.14 -1099.89 437.2 C-1094.57 431.01 -1088.67 425.9 -1082.2 420.96 C-1081.45 420.38 -1080.71 419.8 -1079.94 419.2 C-1063.3 406.81 -1043.57 399.86 -1024.3 392.74 C-1022.23 391.97 -1020.15 391.2 -1018.08 390.42 C-978.32 375.5 -937.72 363 -896.8 351.68 C-894.16 350.95 -891.53 350.22 -888.9 349.48 C-825.4 331.7 -761.17 317.2 -696.2 305.96 C-695.35 305.82 -694.51 305.67 -693.64 305.52 C-640.2 296.31 -586.24 289.42 -532.2 284.96 C-531.46 284.9 -530.72 284.84 -529.96 284.78 C-452.15 278.37 -374.24 276.57 -296.2 278.96 C-294.96 276.49 -295.16 275.08 -295.32 272.33 C-295.37 271.39 -295.41 270.45 -295.46 269.47 C-295.52 268.46 -295.58 267.44 -295.63 266.4 C-295.73 264.27 -295.83 262.14 -295.93 260.02 C-295.95 259.49 -295.95 259.49 -296.07 256.85 C-296.11 255.9 -296.15 254.94 -296.2 253.96 C-296.23 253.22 -296.26 252.49 -296.3 251.73 C-297.15 229.78 -294.65 206.23 -289.2 184.96 C-289.11 184.62 -289.11 184.62 -288.67 182.92 C-278.52 144.72 -254.84 110.15 -221.2 88.96 C-220.16 88.43 -219.12 87.91 -218.05 87.36 C-208.84 82.65 -208.84 82.65 -206.82 76.96 C-206.27 74.96 -205.73 72.96 -205.2 70.96 C-199.05 53.68 -190.72 39.37 -178.2 25.96 C-177.85 25.58 -177.85 25.58 -176.07 23.63 C-153.05 -0.64 -117.82 -13.26 -84.93 -14.97 C-56.71 -15.5 -26.21 -10.62 0 0 Z " fill="#212328" transform="translate(1203.1953125,84.0390625)"/>
<path d="M0 0 C-0.05 0.29 -0.05 0.29 -0.33 1.74 C-6.78 36.26 -4.63 64.25 15.13 94.4 C17.93 98.29 20.97 101.95 24.08 105.59 C26 108 26 108 27.01 110.19 C28.29 112.54 29.6 112.92 32 114 C33.13 114.97 34.24 115.97 35.31 117 C51.46 131.35 71.94 140.98 92.78 146.23 C93.56 146.44 94.34 146.64 95.14 146.85 C96.64 147.23 98.14 147.59 99.64 147.91 C101.68 148.43 101.68 148.43 105 150 C106.29 152.66 106.68 154.14 107 157 C107.11 157.86 107.21 158.71 107.32 159.59 C110.56 190.11 111.01 222.58 107 253 C106.87 254 106.74 255 106.61 256.03 C104.82 269.35 101.98 281.53 97 294 C90.3 311.08 85.84 327.9 83.12 346.06 C75.32 397.71 54.52 458.53 19 498 C18.37 498.74 17.74 499.49 17.09 500.25 C15 502 15 502 12.25 502.25 C11.51 502.17 10.76 502.09 10 502 C-2.66 481.12 -4.82 453.69 -9 430 C-9.14 429.19 -9.29 428.37 -9.44 427.54 C-9.86 425.08 -10.29 422.63 -10.71 420.18 C-10.84 419.43 -10.97 418.68 -11.1 417.91 C-11.72 414.24 -12.15 410.73 -12 407 C-13.98 406.67 -15.96 406.34 -18 406 C-18.13 406.84 -18.25 407.69 -18.38 408.56 C-19.03 412.14 -19.96 415.56 -20.94 419.06 C-33.38 467.59 -21.96 522.29 -11 570 C-10.83 570.75 -10.65 571.51 -10.48 572.28 C-6.94 587.68 -3.34 603.07 0.28 618.46 C1.55 623.82 2.81 629.19 4.06 634.56 C4.16 635 4.16 635 4.68 637.21 C8.37 652.98 11.8 668.79 15.13 684.64 C15.31 685.48 15.49 686.33 15.67 687.2 C16 688.77 16.33 690.33 16.66 691.9 C17.59 696.33 18.74 700.65 20 705 C20.28 706.31 20.53 707.62 20.75 708.95 C20.86 709.63 20.98 710.32 21.1 711.02 C21.32 712.4 21.54 713.78 21.77 715.16 C22.49 719.48 23.4 723.72 24.43 727.98 C26.31 735.98 27.46 744.06 28.62 752.19 C28.95 754.43 29.27 756.68 29.6 758.93 C29.9 760.93 30.19 762.94 30.48 764.95 C31 768 31 768 32 770 C32.26 771.35 32.47 772.7 32.66 774.06 C32.72 774.48 32.72 774.48 33.03 776.62 C33.16 777.56 33.29 778.49 33.42 779.45 C33.56 780.42 33.69 781.4 33.84 782.4 C34.29 785.64 34.74 788.88 35.19 792.12 C35.34 793.24 35.5 794.36 35.66 795.51 C38.87 818.65 41.86 841.81 44.64 865.01 C45.01 868.06 45.38 871.1 45.74 874.15 C46.36 879.22 46.95 884.29 47.54 889.36 C47.76 891.24 47.98 893.13 48.21 895.01 C49.36 904.62 50.19 914.13 50.22 923.82 C50.23 924.63 50.23 925.44 50.23 926.27 C50 953.7 33.73 982.68 23.83 1007.88 C22.58 1011.08 21.33 1014.27 20.08 1017.47 C1 1066.22 -19.03 1114.48 -41 1162 C-41.31 1162.67 -41.62 1163.34 -41.94 1164.03 C-50.24 1181.99 -58.75 1199.85 -67.38 1217.65 C-71.62 1226.42 -75.83 1235.2 -80 1244 C-80.23 1244.48 -80.23 1244.48 -81.38 1246.9 C-98.68 1283.43 -107.51 1308.26 -99.12 1348.26 C-96.02 1363.65 -95.81 1378.95 -95.81 1394.59 C-95.81 1397.36 -95.79 1400.14 -95.78 1402.91 C-95.72 1419.05 -97.2 1434.52 -100.56 1450.31 C-100.67 1450.85 -100.67 1450.85 -101.23 1453.55 C-101.64 1455.51 -102.05 1457.47 -102.46 1459.42 C-107.87 1485.19 -97.65 1508.46 -87.96 1531.95 C-87.49 1533.11 -87.01 1534.27 -86.52 1535.46 C-85.45 1537.95 -84.35 1540.37 -83.15 1542.8 C-82.86 1543.42 -82.56 1544.04 -82.25 1544.69 C-81.43 1546.42 -80.57 1548.14 -79.71 1549.85 C-79 1553 -79 1553 -80.76 1556.29 C-81.5 1557.18 -82.24 1558.08 -83 1559 C-83.47 1559.62 -83.95 1560.24 -84.44 1560.88 C-86 1562 -86 1562 -88.25 1562.62 C-94.98 1561.1 -99.93 1552.83 -103.88 1547.5 C-104.13 1547.15 -104.13 1547.15 -105.44 1545.39 C-117.48 1528.9 -137 1500.86 -137 1480 C-139.44 1480.69 -139.44 1480.69 -142 1482 C-149.15 1503.83 -135.59 1536.62 -125.94 1555.75 C-124.67 1558.19 -123.34 1560.6 -122 1563 C-121.65 1563.63 -121.3 1564.27 -120.94 1564.92 C-118.07 1570.11 -115.2 1575.27 -111.83 1580.15 C-109.21 1584.24 -109.21 1584.24 -109 1587 C-109.67 1589.07 -109.67 1589.07 -110.75 1591.12 C-111.1 1591.81 -111.44 1592.49 -111.8 1593.2 C-113 1595 -113 1595 -116 1597 C-122.61 1597.2 -129.16 1595.42 -135.44 1593.5 C-136.29 1593.24 -137.15 1592.98 -138.03 1592.71 C-157.47 1586.52 -175.51 1576.44 -190 1562 C-190.78 1561.24 -191.56 1560.49 -192.36 1559.71 C-217.59 1533.71 -221.06 1477.65 -221.38 1443.31 C-221.39 1442.3 -221.4 1441.28 -221.42 1440.24 C-221.33 1425.88 -217.17 1412.7 -212.65 1399.24 C-211.06 1394.52 -209.51 1389.79 -207.96 1385.06 C-207.79 1384.57 -207.79 1384.57 -206.97 1382.07 C-182.56 1307.91 -161.54 1232.69 -144.76 1156.44 C-143.72 1151.75 -142.66 1147.07 -141.59 1142.39 C-138.41 1128.37 -135.31 1114.34 -132.22 1100.3 C-130.79 1093.78 -129.36 1087.26 -127.92 1080.74 C-126.95 1076.32 -125.98 1071.9 -125.02 1067.48 C-116.78 1029.61 -106.97 992.32 -94.83 955.51 C-92.57 948.66 -90.34 941.79 -88.11 934.93 C-87.34 932.57 -86.56 930.22 -85.78 927.86 C-80.5 911.81 -78.02 897.78 -82.23 881.15 C-82.46 880.23 -82.68 879.32 -82.91 878.38 C-83.38 876.49 -83.85 874.61 -84.32 872.72 C-84.94 870.22 -85.56 867.72 -86.17 865.22 C-87.34 860.43 -88.54 855.65 -89.75 850.88 C-89.97 849.99 -90.2 849.11 -90.43 848.19 C-95.09 829.89 -100.33 811.76 -105.61 793.62 C-111.72 772.62 -117.48 751.55 -122.88 730.35 C-123.92 726.3 -124.98 722.25 -126.05 718.2 C-128.83 707.64 -131.49 697.06 -133.88 686.4 C-141.9 650.62 -150.88 617.47 -166.18 584.05 C-180.54 552.56 -192.57 520.32 -198 486 C-198.18 485.02 -198.35 484.04 -198.54 483.03 C-200.17 473.23 -200.31 463.59 -200.26 453.67 C-200.25 450.9 -200.26 448.13 -200.27 445.36 C-200.28 436.2 -199.99 427.13 -199.11 418.01 C-199.03 417.19 -198.95 416.37 -198.87 415.53 C-198.4 411.11 -197.6 407.18 -196 403 C-197.32 402.67 -198.64 402.34 -200 402 C-221.36 432.75 -226.75 465.3 -226 502 C-227.86 502.63 -227.86 502.63 -230 503 C-231.73 501.39 -233.38 499.71 -235 498 C-237.51 496.09 -240.15 494.39 -242.81 492.69 C-243.56 492.21 -244.31 491.73 -245.08 491.24 C-270.03 475.53 -296.94 467.69 -326 464 C-326.6 461.29 -327.21 458.58 -327.81 455.88 C-327.99 455.06 -328.18 454.25 -328.36 453.41 C-329.22 449.57 -330.07 445.72 -330.86 441.86 C-330.99 441.26 -330.99 441.26 -331.62 438.19 C-331.84 437.11 -332.06 436.03 -332.29 434.92 C-333 432 -333 432 -334.15 429.36 C-335.12 426.67 -334.8 425.67 -334 423 C-333.39 422.96 -332.78 422.91 -332.16 422.86 C-317.86 421.78 -303.69 420.55 -289.78 416.91 C-286 416 -286 416 -282 416 C-282.33 415.01 -282.66 414.02 -283 413 C-282.67 412.34 -282.34 411.68 -282 411 C-283.26 410.98 -284.52 410.96 -285.81 410.94 C-286.52 410.93 -287.23 410.91 -287.96 410.9 C-290 411 -290 411 -293 412 C-293.33 411.34 -293.66 410.68 -294 410 C-295.75 409.47 -295.75 409.47 -298.07 409.06 C-298.95 408.9 -299.83 408.73 -300.74 408.56 C-301.71 408.37 -302.68 408.19 -303.69 408 C-324.56 403.73 -344.4 396.19 -364.07 388.17 C-384.25 379.95 -404.59 373.18 -426 369 C-427.18 368.77 -428.36 368.53 -429.57 368.29 C-453.39 363.97 -477.42 365.99 -501.27 368.72 C-504 369 -504 369 -507 369 C-508.32 365.03 -507.3 363.89 -505.54 360.14 C-504.99 358.97 -504.44 357.8 -503.87 356.59 C-503.27 355.33 -502.67 354.07 -502.06 352.81 C-501.45 351.52 -500.84 350.23 -500.23 348.94 C-496.31 340.64 -492.34 332.36 -488.13 324.2 C-487.29 322.57 -486.46 320.93 -485.63 319.3 C-467.35 283.31 -446.48 248.4 -421 217 C-420.27 216.08 -419.53 215.17 -418.78 214.23 C-414.41 208.82 -409.91 203.52 -405.38 198.25 C-405.11 197.94 -405.11 197.94 -403.78 196.39 C-400.54 192.64 -397.16 189.09 -393.61 185.64 C-391.93 183.93 -390.4 182.15 -388.88 180.31 C-384.25 174.96 -378.96 170.32 -373.73 165.58 C-372.03 164.02 -370.34 162.46 -368.66 160.88 C-361.98 154.63 -355.15 148.7 -348 143 C-346.87 142.08 -345.74 141.16 -344.61 140.23 C-285.58 92.16 -214.83 57.3 -143 33 C-142.32 32.77 -141.65 32.54 -140.95 32.3 C-117.53 24.33 -93.95 17.43 -69.94 11.48 C-68.21 11.05 -66.48 10.62 -64.75 10.19 C-11.35 -3.09 -11.35 -3.09 0 0 Z M-245 152 C-245.64 152.43 -246.27 152.86 -246.93 153.3 C-256.27 159.64 -264.81 166.21 -273 174 C-274.24 175.07 -275.49 176.13 -276.75 177.19 C-288.03 187.05 -298.24 197.84 -307 210 C-307.42 210.58 -307.84 211.16 -308.28 211.76 C-330.53 242.92 -339.03 277.12 -341 315 C-339.02 315 -337.04 315 -335 315 C-334.49 313.82 -333.98 312.63 -333.46 311.41 C-330.43 304.61 -327.03 297.99 -323.62 291.38 C-323.27 290.69 -322.92 290.01 -322.56 289.31 C-305.65 256.59 -284.58 225.89 -259.55 198.8 C-258.22 197.34 -256.89 195.87 -255.61 194.36 C-250.19 188 -244.29 182.14 -238.38 176.25 C-236.57 174.44 -234.76 172.63 -232.96 170.82 C-227.14 165 -221.27 159.34 -215 154 C-213.18 152.34 -211.37 150.67 -209.56 149 C-205.51 145.3 -201.37 141.84 -196.97 138.57 C-194.81 136.85 -192.94 134.96 -191 133 C-189.35 131.65 -187.68 130.31 -186 129 C-186.33 128.34 -186.33 128.34 -188 125 C-205.6 125 -230.71 142.21 -245 152 Z " fill="#f3f2eb" transform="translate(909,609)"/>
<path d="M0 0 C2.15 4.04 0.36 8.95 -0.84 13.14 C-1.97 16.71 -3.16 20.26 -4.38 23.81 C-4.58 24.43 -4.58 24.43 -5.61 27.53 C-8.67 36.59 -8.67 36.59 -10.94 40 C-13.12 40.4 -13.12 40.4 -15.93 40.5 C-24.45 41.01 -32.74 42.54 -41.12 44.06 C-41.98 44.22 -42.83 44.37 -43.71 44.53 C-60.97 47.66 -77.98 51.51 -94.94 56 C-95.61 56.18 -96.28 56.35 -96.97 56.53 C-134.39 66.4 -171.33 78.85 -206.94 94 C-208.03 94.46 -209.12 94.92 -210.25 95.4 C-231.45 104.4 -251.94 114.59 -271.94 126 C-272.91 126.55 -273.89 127.1 -274.89 127.67 C-306.84 145.77 -337.51 165.54 -365.32 189.61 C-367.03 191.08 -368.77 192.54 -370.5 194 C-376.85 199.35 -382.91 204.82 -388.71 210.78 C-390.7 212.76 -392.73 214.57 -394.88 216.38 C-399.88 220.67 -404.21 225.6 -408.6 230.51 C-409.83 231.88 -411.08 233.25 -412.32 234.61 C-417.76 240.56 -422.88 246.72 -427.94 253 C-428.85 254.11 -429.76 255.22 -430.68 256.33 C-455.45 286.54 -474.91 320.57 -493.28 354.92 C-494.46 357.1 -495.64 359.28 -496.83 361.46 C-501.57 370.17 -505.87 379.03 -509.95 388.07 C-510.96 390.29 -511.98 392.52 -513 394.74 C-513.64 396.16 -514.29 397.59 -514.94 399.02 C-515.24 399.67 -515.54 400.33 -515.86 401.01 C-517.14 403.87 -517.94 405.83 -517.94 409 C-517.23 408.88 -516.52 408.76 -515.8 408.63 C-491.56 404.67 -467.3 403.4 -442.94 407 C-442.13 407.12 -441.33 407.24 -440.5 407.36 C-414.5 411.36 -390.32 420.97 -366.01 430.6 C-350.23 436.85 -334.5 442.6 -317.84 446.09 C-317.01 446.26 -316.18 446.44 -315.32 446.62 C-313.72 446.95 -312.12 447.27 -310.51 447.57 C-308.34 448.01 -308.34 448.01 -304.94 449 C-304.61 449.99 -304.28 450.98 -303.94 452 C-303.28 452 -302.62 452 -301.94 452 C-301.61 451.34 -301.28 450.68 -300.94 450 C-298.3 450.33 -295.66 450.66 -292.94 451 C-292.94 452.65 -292.94 454.3 -292.94 456 C-334.82 466.04 -334.82 466.04 -353.29 461.62 C-356.61 460.84 -359.95 460.28 -363.31 459.69 C-376.35 457.29 -389.12 453.78 -401.9 450.3 C-422.62 444.67 -422.62 444.67 -431.94 443 C-432.28 442.93 -432.28 442.93 -433.98 442.59 C-476.42 434.32 -520.86 440.95 -557.25 464.81 C-564.81 469.93 -571.51 475.51 -577.94 482 C-578.36 482.41 -578.36 482.41 -580.5 484.5 C-596.42 500.84 -605.21 522.21 -610.09 544.16 C-610.29 545.06 -610.49 545.95 -610.7 546.88 C-611.11 548.71 -611.51 550.56 -611.91 552.4 C-613.89 561.1 -617.94 566.29 -624.25 572.38 C-629.04 577.08 -633.68 581.79 -637.94 587 C-638.34 587.49 -638.74 587.97 -639.15 588.47 C-658.73 612.41 -671.04 638.59 -676.94 669 C-677.12 669.84 -677.3 670.68 -677.48 671.54 C-679.35 681.11 -679.33 690.66 -679.31 700.38 C-679.31 701.26 -679.31 702.15 -679.31 703.06 C-679.29 716.74 -678.36 729.7 -674.94 743 C-674.71 743.93 -674.49 744.85 -674.26 745.8 C-672.5 753.05 -670.46 760.19 -668.25 767.31 C-668.06 767.91 -668.06 767.91 -667.12 770.96 C-664.56 779.18 -661.82 787.33 -659 795.46 C-658.65 796.47 -658.31 797.47 -657.95 798.5 C-657.6 799.51 -657.25 800.52 -656.89 801.56 C-650.67 819.55 -644.55 837.27 -640.94 856 C-640.64 857.44 -640.34 858.88 -640.04 860.31 C-639.2 864.52 -638.55 868.75 -637.94 873 C-637.8 873.86 -637.67 874.72 -637.53 875.6 C-632.56 907.95 -632.06 943.9 -638.94 976 C-627.22 971.51 -618.8 951.47 -613.9 940.73 C-607.58 926.11 -603.14 910.77 -600.94 895 C-600.85 894.54 -600.85 894.54 -600.43 892.23 C-599.94 889.04 -599.73 885.96 -599.62 882.73 C-599.58 881.57 -599.54 880.42 -599.49 879.23 C-599.45 878.04 -599.42 876.85 -599.38 875.62 C-599.35 875.02 -599.35 875.02 -599.24 871.95 C-599.14 868.97 -599.04 865.98 -598.94 863 C-596.56 863.66 -596.56 863.66 -593.94 865 C-592.73 867.38 -592.73 867.38 -591.9 870.41 C-591.57 871.55 -591.25 872.69 -590.91 873.86 C-590.74 874.48 -590.74 874.48 -589.88 877.62 C-589.1 880.3 -588.3 882.96 -587.5 885.62 C-587.3 886.32 -587.09 887.01 -586.88 887.72 C-584.64 895.13 -582.04 902.38 -579.31 909.62 C-579.19 909.95 -579.19 909.95 -578.57 911.61 C-574.14 923.3 -569.25 934.78 -564.27 946.25 C-551.86 974.88 -540.77 1004.5 -533.94 1035 C-533.63 1036.35 -533.32 1037.69 -533.01 1039.04 C-532.5 1041.24 -532 1043.45 -531.52 1045.66 C-530.94 1048 -530.94 1048 -529.94 1050 C-529.57 1052.14 -529.24 1054.29 -528.94 1056.44 C-528.46 1059.78 -528.01 1062.79 -526.94 1066 C-526.48 1069.4 -526.08 1072.79 -525.69 1076.2 C-525.32 1079.27 -524.92 1082.05 -523.94 1085 C-519.97 1116.22 -518.43 1153.36 -525.94 1184 C-522.32 1182.8 -522.16 1182.11 -520.38 1178.88 C-518.29 1175.22 -516.08 1171.74 -513.66 1168.31 C-495.86 1142.83 -484.05 1113.13 -476.94 1083 C-476.76 1082.29 -476.59 1081.58 -476.41 1080.85 C-473.54 1068.57 -471.68 1056.22 -470.67 1043.66 C-470.3 1039.23 -469.76 1034.94 -468.92 1030.57 C-467.74 1023.59 -467.68 1016.77 -467.74 1009.7 C-467.75 1008.39 -467.75 1007.07 -467.75 1005.72 C-467.76 1002.27 -467.78 998.81 -467.8 995.36 C-467.82 991.82 -467.83 988.28 -467.84 984.74 C-467.86 977.83 -467.9 970.91 -467.94 964 C-466.62 963.34 -465.3 962.68 -463.94 962 C-458.72 967.14 -453.51 972.3 -448.31 977.47 C-446.54 979.22 -444.77 980.96 -443 982.71 C-432.92 992.65 -423.27 1002.52 -414.94 1014 C-414.38 1014.75 -413.81 1015.51 -413.24 1016.29 C-391.96 1045.3 -374.57 1084.81 -371.94 1121 C-370.62 1121 -369.3 1121 -367.94 1121 C-367.87 1120.5 -367.87 1120.5 -367.55 1117.99 C-366.98 1113.97 -366.04 1110.06 -365.06 1106.12 C-358.61 1079.02 -356.54 1051.45 -359.12 1023.69 C-359.16 1023.34 -359.16 1023.34 -359.31 1021.59 C-360.28 1011.17 -361.86 1001.07 -364.4 990.91 C-364.61 990.04 -364.83 989.18 -365.05 988.3 C-365.24 987.56 -365.44 986.82 -365.64 986.06 C-365.97 983.76 -365.64 982.2 -364.94 980 C-334.11 994.03 -313.47 1035.2 -301.94 1065 C-295.89 1081.19 -290.6 1098.56 -290.94 1116 C-289.62 1116 -288.3 1116 -286.94 1116 C-286.88 1115.67 -286.88 1115.67 -286.59 1114.02 C-285.69 1109.02 -284.75 1104.03 -283.72 1099.05 C-281.22 1087.06 -279.06 1075.21 -277.94 1063 C-277.85 1062.19 -277.77 1061.38 -277.68 1060.55 C-274.13 1025.69 -279.24 991.44 -289.88 958.25 C-290.21 957.18 -290.54 956.11 -290.89 955 C-292.8 949.01 -295.04 943.58 -297.94 938 C-297.94 937.34 -297.94 936.68 -297.94 936 C-304.18 935.27 -310.36 934.87 -316.64 934.71 C-328.82 934.39 -340.93 933.64 -353.06 932.62 C-353.78 932.57 -354.5 932.51 -355.24 932.45 C-386.79 929.91 -411.84 919.6 -438.89 903.54 C-445.28 899.76 -451.78 896.2 -458.34 892.73 C-462.98 890.23 -467.06 887.51 -471.11 884.14 C-472.94 883 -472.94 883 -476.94 883 C-477.14 894.5 -477.16 905.92 -476.06 917.38 C-475.98 918.21 -475.91 919.05 -475.82 919.91 C-475.32 924.71 -474.46 929.31 -473.35 934.01 C-472.58 937.71 -472.82 941.24 -472.94 945 C-473.6 945.33 -474.26 945.66 -474.94 946 C-475.6 945.67 -476.26 945.34 -476.94 945 C-476.94 944.34 -476.94 943.68 -476.94 943 C-477.47 942.8 -478.01 942.6 -478.56 942.39 C-481.95 940.41 -484.38 937.63 -487 934.75 C-487.57 934.13 -488.14 933.5 -488.73 932.86 C-515.47 903.35 -533.59 868.16 -539.38 828.57 C-539.68 826.65 -540 824.73 -540.43 822.84 C-542.31 814.18 -542.31 805.57 -542.31 796.75 C-542.31 794.1 -542.35 791.45 -542.39 788.79 C-542.54 767.45 -536.87 748.63 -530.06 728.56 C-528.66 724.4 -527.27 720.23 -525.88 716.07 C-525.55 715.06 -525.21 714.05 -524.86 713.01 C-522.61 706.17 -520.5 699.31 -518.52 692.39 C-518.27 691.54 -518.03 690.69 -517.78 689.82 C-516.13 683.94 -514.76 678.06 -513.94 672 C-512.62 672 -511.3 672 -509.94 672 C-508.33 675.22 -508.73 678.73 -508.7 682.27 C-508.69 683.11 -508.68 683.96 -508.67 684.84 C-508.65 687.64 -508.63 690.45 -508.62 693.25 C-508.62 694.21 -508.62 695.16 -508.61 696.15 C-508.59 713.99 -510.04 731.46 -512.23 749.15 C-513.54 759.8 -514.1 770.3 -514.07 781.03 C-514.06 783.13 -514.07 785.23 -514.07 787.33 C-514.08 806.23 -514.08 806.23 -511.88 811.56 C-510.88 814.15 -510.9 815.64 -511 818.38 C-511.1 822.16 -510.39 824.36 -508.67 827.76 C-506.9 833.16 -507.15 839.35 -506.94 845 C-505.95 844.67 -504.96 844.34 -503.94 844 C-503.97 843.17 -504.01 842.33 -504.04 841.47 C-504.19 835.2 -504.01 830.04 -501.73 824.18 C-500.3 820.24 -499.7 816.11 -498.94 812 C-497.08 802.65 -493.98 793.89 -490.5 785.03 C-490.17 784.2 -489.85 783.37 -489.51 782.52 C-488.83 780.75 -488.13 778.99 -487.44 777.23 C-486.36 774.46 -485.28 771.7 -484.2 768.94 C-480.72 760.02 -477.19 751.12 -473.55 742.26 C-462.83 716.1 -455.08 686.42 -460.94 658 C-461.05 656.41 -461.14 654.82 -461.18 653.23 C-461.22 652.34 -461.25 651.45 -461.28 650.54 C-461.34 648.69 -461.4 646.85 -461.46 645.01 C-461.65 639.84 -462.22 635.05 -463.45 630.02 C-464.35 626.29 -464.77 622.49 -465.28 618.7 C-467.35 607.1 -471.12 596.02 -474.91 584.89 C-475.6 582.84 -476.28 580.8 -476.95 578.75 C-477.36 577.55 -477.76 576.35 -478.18 575.11 C-478.9 572.15 -479.04 570.79 -477.94 568 C-473.55 568.89 -470.62 571.27 -467.12 573.94 C-443.19 591.81 -419.45 603.59 -390.31 610.6 C-323.9 626.75 -323.9 626.75 -304.12 641.42 C-301.8 643.1 -299.41 644.56 -296.94 646 C-298.32 641.29 -300.33 637.24 -302.88 633.06 C-303.27 632.42 -303.66 631.77 -304.06 631.1 C-310.96 619.93 -318.8 609.45 -327.94 600 C-328.52 599.4 -329.11 598.79 -329.71 598.17 C-337.74 589.89 -345.85 582.11 -354.94 575 C-356.81 573.42 -358.66 571.82 -360.5 570.21 C-361.94 569 -361.94 569 -364.38 567.31 C-364.63 567.1 -364.63 567.1 -365.94 566 C-365.94 565.01 -365.94 564.02 -365.94 563 C-364.27 562.96 -362.6 562.96 -360.94 563 C-360.61 563.33 -360.28 563.66 -359.94 564 C-358.5 564.31 -357.05 564.58 -355.6 564.84 C-310.8 573.48 -267.59 603.46 -234.48 633.74 C-231.97 635.97 -229.39 638.05 -226.75 640.12 C-215.61 649.16 -200.9 661.21 -195.94 675 C-194.95 674.67 -193.96 674.34 -192.94 674 C-193.23 673.22 -193.51 672.43 -193.81 671.62 C-194.67 668.85 -195.28 666.32 -195.79 663.48 C-204.55 619 -233.72 578.62 -268.94 551 C-269.41 550.62 -269.41 550.62 -271.78 548.68 C-292.68 531.95 -321.26 513.56 -347.94 509 C-347.61 507.68 -347.28 506.36 -346.94 505 C-346.64 505.01 -346.64 505.01 -345.14 505.04 C-344.35 505.04 -343.56 505.05 -342.75 505.06 C-342.36 505.07 -342.36 505.07 -340.39 505.1 C-337.94 505 -337.94 505 -335.59 504.45 C-306.08 499.41 -269.31 521.1 -246.16 536.9 C-244.36 538.19 -242.64 539.58 -240.94 541 C-240.94 541.66 -240.94 542.32 -240.94 543 C-239.95 542.67 -238.96 542.34 -237.94 542 C-237.95 541.23 -237.97 540.45 -237.99 539.66 C-238.53 508.4 -234.56 480.7 -218.94 453 C-218.6 452.4 -218.26 451.79 -217.91 451.17 C-215.97 447.75 -213.98 444.36 -211.94 441 C-210.29 441.66 -208.64 442.32 -206.94 443 C-207.03 443.56 -207.12 444.12 -207.21 444.7 C-211.63 473.39 -213.06 504.9 -206.54 533.34 C-205.83 536.46 -205.2 539.59 -204.55 542.72 C-198.36 571.51 -187.91 598.68 -175.43 625.27 C-162.45 653.03 -154.35 680.72 -147.47 710.43 C-144.4 723.65 -141.2 736.83 -137.94 750 C-137.71 750.91 -137.49 751.83 -137.25 752.77 C-130.84 778.63 -124.12 804.36 -116.62 829.93 C-112.06 845.48 -107.79 861.1 -103.61 876.77 C-102.01 882.77 -100.35 888.75 -98.67 894.73 C-96.61 902.12 -94.73 909.54 -92.94 917 C-92.64 918.17 -92.33 919.34 -92.02 920.55 C-89.11 932.58 -88.75 943.76 -92.02 955.67 C-92.24 956.49 -92.46 957.3 -92.69 958.15 C-95.16 967.12 -98.14 975.91 -101.15 984.72 C-116.48 1029.6 -128.39 1075.2 -138.11 1121.62 C-138.29 1122.48 -138.47 1123.34 -138.66 1124.22 C-138.84 1125.08 -139.02 1125.94 -139.2 1126.83 C-141.53 1137.89 -144.02 1148.91 -146.5 1159.94 C-146.62 1160.46 -146.62 1160.46 -147.21 1163.09 C-148.78 1170.06 -150.36 1177.03 -151.94 1184 C-152.13 1184.86 -152.33 1185.72 -152.53 1186.6 C-154.54 1195.46 -156.56 1204.32 -158.6 1213.17 C-159.58 1217.45 -160.56 1221.73 -161.53 1226.02 C-176.19 1290.39 -194.74 1353.72 -215.33 1416.43 C-215.51 1416.98 -215.51 1416.98 -216.44 1419.8 C-218.2 1425.16 -219.96 1430.52 -221.75 1435.88 C-236.95 1481.73 -233.1 1541.15 -212.75 1585.69 C-208.86 1592.82 -203.7 1598.37 -197.94 1604 C-197.33 1604.63 -196.72 1605.26 -196.09 1605.91 C-182.89 1618.63 -163.89 1627.06 -146.62 1632.38 C-145.81 1632.63 -145 1632.88 -144.16 1633.14 C-138.56 1634.77 -132.81 1636.07 -126.94 1636 C-123.92 1634.11 -123.13 1632.35 -121.44 1629.25 C-120.44 1622.76 -125.37 1617.3 -128.69 1612 C-136.53 1599.34 -142.37 1586.2 -147.2 1572.13 C-147.83 1570.3 -148.49 1568.49 -149.16 1566.68 C-153.62 1553.73 -158.2 1534.16 -152.94 1521 C-151.29 1520.67 -149.64 1520.34 -147.94 1520 C-147.8 1520.37 -147.8 1520.37 -147.09 1522.25 C-136.54 1550.02 -124.6 1580.56 -101.94 1601 C-99.56 1601.69 -99.56 1601.69 -96.94 1601 C-94.68 1598.85 -92.82 1596.48 -90.94 1594 C-93.44 1587.35 -96.01 1580.76 -98.8 1574.23 C-105.3 1559.06 -110.81 1544.02 -114.94 1528 C-115.03 1527.66 -115.03 1527.66 -115.5 1525.92 C-118.32 1513.67 -114.95 1500.65 -112.23 1488.73 C-108.56 1472.62 -107.77 1457 -107.81 1440.53 C-107.81 1437.7 -107.81 1434.88 -107.8 1432.06 C-107.79 1414.89 -108.89 1398.62 -112.44 1381.81 C-120.93 1341.35 -104.73 1311.11 -87.36 1275.11 C-82.7 1265.46 -78.14 1255.76 -73.57 1246.06 C-72.84 1244.5 -72.1 1242.95 -71.37 1241.39 C-71 1240.61 -70.63 1239.83 -70.26 1239.03 C-67.73 1233.67 -65.18 1228.31 -62.63 1222.96 C-53.07 1202.87 -43.85 1182.66 -34.94 1162.28 C-33.93 1159.98 -32.92 1157.68 -31.91 1155.39 C-22.43 1133.8 -13.4 1112.06 -4.77 1090.11 C-3.68 1087.34 -2.58 1084.56 -1.48 1081.79 C1.77 1073.58 5 1065.37 8.22 1057.15 C8.79 1055.69 9.36 1054.23 9.94 1052.77 C40.9 973.8 40.9 973.8 35.44 927.69 C35.16 925.31 34.89 922.93 34.62 920.55 C31.07 889.86 27.14 859.22 22.81 828.62 C22.69 827.74 22.56 826.85 22.43 825.93 C22.08 823.43 21.72 820.92 21.36 818.41 C21.26 817.69 21.16 816.97 21.05 816.22 C20.4 811.79 19.52 807.45 18.52 803.09 C17.92 800.37 17.49 797.64 17.1 794.89 C17.02 794.35 17.02 794.35 16.62 791.62 C16.45 790.51 16.29 789.4 16.12 788.25 C14.95 780.42 13.7 772.73 11.77 765.05 C10.9 761.28 10.26 757.5 9.62 753.69 C8.47 746.89 6.94 740.27 5.21 733.6 C3.95 728.63 2.87 723.62 1.8 718.61 C-0.99 705.7 -3.89 692.82 -6.81 679.94 C-7.08 678.78 -7.34 677.62 -7.61 676.42 C-10.61 663.17 -13.64 649.92 -16.75 636.69 C-37.19 549.59 -37.19 549.59 -37.12 506.5 C-37.12 506.13 -37.12 506.13 -37.12 504.25 C-37.08 484.05 -35.52 465.24 -28.94 446 C-26.96 446.33 -24.98 446.66 -22.94 447 C-22.83 447.61 -22.83 447.61 -22.3 450.69 C-9.47 524.53 -9.47 524.53 -0.94 541 C2.13 541.33 3.58 541.36 6.1 539.48 C43 497.74 64.24 435.1 72.16 380.7 C74.55 364.27 79.15 348.93 85.25 333.5 C88.73 324.66 91.79 316.46 93.06 307 C93.19 306.08 93.31 305.16 93.44 304.21 C94.42 296.82 95.31 289.42 96.06 282 C96.16 281.03 96.26 280.05 96.36 279.05 C97.28 268.88 97.26 258.7 97.25 248.5 C97.25 247.56 97.25 246.62 97.25 245.65 C97.24 227.1 96.97 208.36 94.06 190 C94.67 190.06 95.27 190.11 95.89 190.17 C97.69 190.33 99.48 190.5 101.28 190.66 C103.31 190.85 105.33 191.03 107.36 191.22 C113.48 191.79 119.59 192.27 125.72 192.56 C128.97 193.17 131.71 194.65 134.06 197 C134.16 199.27 134.19 201.54 134.19 203.82 C134.19 204.53 134.2 205.25 134.2 205.98 C134.2 208.37 134.2 210.75 134.2 213.13 C134.2 214.8 134.2 216.47 134.2 218.14 C134.2 221.66 134.2 225.19 134.19 228.71 C134.19 233.16 134.19 237.6 134.2 242.05 C134.25 293.45 134.25 293.45 131.25 309.5 C131.07 310.5 130.89 311.51 130.71 312.54 C128.66 323.64 125.8 334.09 121.87 344.68 C115.42 362.07 111.1 379.64 107.82 397.89 C95.77 464.13 67.54 523.59 25.8 576.11 C25.29 576.75 24.79 577.39 24.27 578.04 C23.33 579.23 22.38 580.41 21.44 581.59 C15.69 588.82 15.5 593.87 16.06 603 C16.76 608.64 17.73 614.22 18.75 619.81 C19.03 621.37 19.3 622.93 19.58 624.49 C22.91 643.13 26.93 661.56 31.27 679.98 C38.01 708.7 43.89 737.6 49.58 766.54 C50.06 768.99 50.54 771.44 51.03 773.89 C57.59 807.16 62.89 840.33 66.85 874.01 C67.61 880.42 68.43 886.83 69.29 893.23 C69.4 894.04 69.51 894.85 69.62 895.69 C69.67 896.1 69.67 896.1 69.95 898.17 C71.91 912.74 73.73 927.28 74.87 941.94 C75.05 943.87 75.32 945.8 75.59 947.71 C79.68 979.59 70.11 1005.91 58.85 1034.96 C58.14 1036.81 57.42 1038.66 56.71 1040.51 C53.86 1047.91 50.94 1055.28 48 1062.64 C46.92 1065.35 45.84 1068.06 44.76 1070.77 C42.58 1076.26 40.4 1081.74 38.21 1087.22 C37.33 1089.41 36.46 1091.61 35.58 1093.8 C30.5 1106.56 25.32 1119.27 19.95 1131.91 C18.61 1135.07 17.29 1138.24 15.96 1141.41 C12.97 1148.57 9.97 1155.73 6.95 1162.89 C6.36 1164.29 5.77 1165.69 5.18 1167.1 C-7.62 1197.52 -21.27 1227.52 -35.75 1257.19 C-46.02 1278.24 -55.96 1299.38 -65 1321 C-65.32 1321.76 -65.64 1322.53 -65.97 1323.31 C-68.01 1328.19 -70 1333.08 -71.94 1338 C-72.37 1339.1 -72.81 1340.2 -73.26 1341.34 C-77.7 1353.46 -75.6 1364.73 -73.86 1377.18 C-71.73 1392.46 -70.06 1407.56 -69.94 1423 C-69.92 1424.02 -69.91 1425.05 -69.9 1426.1 C-69.8 1433.73 -69.83 1441.36 -69.94 1449 C-69.94 1449.49 -69.94 1449.49 -69.98 1451.95 C-70.25 1468.62 -72.07 1485.24 -75.47 1501.57 C-78.4 1516.92 -75.08 1530.06 -68.94 1544 C-67.52 1547.32 -66.11 1550.63 -64.71 1553.95 C-63.76 1556.17 -62.81 1558.38 -61.85 1560.58 C-57.8 1569.9 -53.72 1579.78 -52.94 1590 C-52.89 1590.66 -52.83 1591.32 -52.78 1592 C-52.3 1603.25 -55.81 1614.03 -63.26 1622.5 C-67.82 1627.43 -72.44 1632 -77.98 1635.81 C-82.44 1639.09 -84.7 1642.95 -87.31 1647.75 C-94.73 1660.51 -102.96 1668.94 -117.31 1673.8 C-141.94 1680.22 -170.73 1667.35 -191.68 1655.34 C-223.04 1636.72 -246.96 1611.34 -256.3 1575.57 C-258.15 1568.11 -259.6 1560.57 -260.94 1553 C-261.08 1552.21 -261.22 1551.43 -261.36 1550.62 C-263.16 1540.45 -264.75 1530.26 -265.94 1520 C-266.03 1519.24 -266.12 1518.49 -266.22 1517.71 C-267.59 1506.06 -268.2 1494.42 -268.38 1482.69 C-268.41 1481.5 -268.44 1480.32 -268.48 1479.1 C-268.57 1459.3 -262.75 1440.06 -256.49 1421.46 C-254.6 1415.81 -252.76 1410.14 -250.91 1404.47 C-250.52 1403.25 -250.12 1402.04 -249.72 1400.79 C-244.75 1385.46 -240.12 1370.03 -235.5 1354.6 C-234.82 1352.35 -234.15 1350.1 -233.47 1347.85 C-228.25 1330.51 -223.26 1313.14 -218.64 1295.63 C-217.41 1291.03 -216.12 1286.46 -214.83 1281.88 C-207.61 1256.14 -201.75 1230.09 -195.94 1204 C-195.61 1202.52 -195.28 1201.04 -194.95 1199.56 C-188.99 1172.8 -188.99 1172.8 -186.48 1161.37 C-182.85 1144.82 -178.99 1128.33 -175.11 1111.83 C-172.61 1101.17 -170.13 1090.5 -167.72 1079.81 C-161.67 1052.96 -154.67 1026.42 -146.94 1000 C-146.81 999.55 -146.81 999.55 -146.15 997.28 C-143.8 989.18 -141.34 981.14 -138.64 973.16 C-138.23 971.96 -137.83 970.77 -137.41 969.54 C-136.62 967.2 -135.82 964.87 -135.01 962.55 C-130.6 949.65 -128.86 938.04 -131 924.56 C-131.12 923.77 -131.25 922.99 -131.38 922.18 C-136.03 894.92 -136.03 894.92 -141.94 884 C-143.26 884 -144.58 884 -145.94 884 C-147.67 886.22 -147.67 886.22 -149.69 889.5 C-154.86 897.32 -161.34 903.84 -167.94 910.44 C-168.45 910.96 -168.97 911.48 -169.49 912.01 C-177.36 919.94 -185.46 927.62 -196 931.81 C-196.92 932.19 -197.84 932.57 -198.79 932.96 C-208.68 936.23 -218.25 936.39 -228.56 936.56 C-230.93 936.61 -233.29 936.65 -235.65 936.71 C-237.12 936.74 -238.58 936.76 -240.04 936.79 C-251.96 937.03 -251.96 937.03 -254.94 940 C-254.58 947.18 -252.83 953.93 -251.06 960.88 C-233.4 1032.98 -242.67 1104.18 -276.94 1170 C-277.25 1170.61 -277.57 1171.23 -277.89 1171.86 C-295.88 1206.94 -295.88 1206.94 -307.94 1219 C-310.06 1218.62 -310.06 1218.62 -311.94 1218 C-311.93 1217.42 -311.92 1216.84 -311.92 1216.24 C-311.32 1161.41 -311.32 1161.41 -314.94 1141 C-315.09 1140.08 -315.25 1139.16 -315.41 1138.21 C-317.07 1128.5 -319.02 1119.09 -322.94 1110 C-323.93 1110 -324.92 1110 -325.94 1110 C-326.3 1111.17 -326.67 1112.34 -327.05 1113.55 C-329.79 1122.25 -332.56 1130.93 -335.48 1139.58 C-341.35 1157.02 -347.08 1174.5 -352.63 1192.05 C-353.36 1194.34 -354.1 1196.64 -354.83 1198.94 C-361.85 1220.95 -368.15 1243.14 -372.4 1265.87 C-372.82 1268.13 -373.26 1270.39 -373.7 1272.64 C-378.85 1299.37 -377.6 1316.63 -363.84 1340.35 C-349.13 1365.8 -342.08 1389.14 -339.5 1418.5 C-339.44 1419.19 -339.38 1419.87 -339.31 1420.58 C-338.23 1432.75 -337.31 1444.93 -336.45 1457.12 C-336.32 1459.01 -336.18 1460.9 -336.05 1462.8 C-332.9 1506.69 -332.9 1506.69 -343.96 1520.85 C-351.56 1529.12 -360.13 1533.81 -371.38 1534.62 C-372.36 1534.66 -373.35 1534.69 -374.37 1534.73 C-376.94 1535 -376.94 1535 -379.94 1537 C-379.36 1541.48 -377.61 1544.49 -375.25 1548.31 C-368.15 1560.53 -364.42 1570.66 -364.25 1585 C-364.24 1585.53 -364.24 1585.53 -364.19 1588.22 C-364.3 1595.26 -365.67 1599.45 -369.94 1605 C-370.24 1605.49 -370.24 1605.49 -371.79 1607.94 C-379.08 1618.71 -388.31 1623.96 -400.88 1626.47 C-416.04 1628.86 -428.89 1621.18 -440.94 1613 C-442.02 1612.28 -443.1 1611.56 -444.21 1610.82 C-482.97 1584.5 -508.3 1543.32 -524.04 1500.07 C-524.95 1497.57 -525.83 1495.19 -527.16 1492.87 C-527.94 1491 -527.94 1491 -527.43 1488.74 C-526.86 1485.59 -527.23 1483.44 -527.9 1480.32 C-528.01 1479.79 -528.01 1479.79 -528.58 1477.06 C-528.82 1475.95 -529.06 1474.84 -529.31 1473.69 C-531.92 1461.44 -533.18 1450.02 -533.19 1437.5 C-533.19 1436.76 -533.19 1436.03 -533.19 1435.27 C-533.17 1423.17 -532.27 1411.47 -530.46 1399.49 C-529.48 1392.93 -528.63 1386.36 -527.76 1379.79 C-527.45 1377.5 -527.14 1375.21 -526.83 1372.93 C-523.21 1346.29 -521.26 1319.63 -519.88 1292.8 C-519.71 1289.55 -519.53 1286.29 -519.35 1283.03 C-518.45 1266.69 -517.6 1250.38 -517.94 1234 C-522.73 1234.66 -524.83 1235.35 -528.25 1238.81 C-540.58 1250.44 -555.57 1259.16 -569.94 1268 C-570.58 1268.4 -571.23 1268.8 -571.89 1269.22 C-573.57 1270.26 -575.25 1271.29 -576.94 1272.31 C-577.85 1272.87 -578.75 1273.42 -579.69 1273.99 C-581.94 1275 -581.94 1275 -584.94 1274 C-584.44 1267.16 -582.43 1261.62 -579.81 1255.31 C-573 1238.34 -567.41 1221.39 -563.5 1203.52 C-562.96 1201.1 -562.39 1198.68 -561.81 1196.27 C-557.3 1176.92 -556.75 1157.6 -556.69 1137.81 C-556.68 1136.93 -556.68 1136.05 -556.67 1135.15 C-556.58 1116.05 -558.49 1097.6 -562.19 1078.88 C-562.34 1078.08 -562.5 1077.28 -562.66 1076.47 C-563.59 1071.68 -564.54 1066.91 -565.51 1062.13 C-565.9 1060.19 -566.29 1058.25 -566.67 1056.32 C-571.37 1033.09 -578.78 1010.37 -587.88 988.5 C-588.05 988.07 -588.05 988.07 -588.94 985.88 C-589.28 985.1 -589.62 984.33 -589.96 983.53 C-590.25 982.87 -590.54 982.2 -590.83 981.52 C-591.94 980 -591.94 980 -594.06 979.28 C-594.37 979.23 -594.37 979.23 -595.94 979 C-596.9 980.23 -597.85 981.46 -598.81 982.69 C-599.45 983.51 -600.1 984.33 -600.76 985.18 C-602.27 987.13 -603.76 989.1 -605.24 991.07 C-617.17 1006.94 -630.34 1018.75 -646.54 1030.16 C-650.41 1032.88 -654.2 1035.7 -657.96 1038.57 C-684.11 1058.5 -684.11 1058.5 -696.94 1057 C-699.5 1055.38 -699.5 1055.38 -700.94 1053 C-700.55 1048.61 -699.3 1045.25 -697.31 1041.35 C-696.77 1040.28 -696.24 1039.2 -695.68 1038.09 C-695.11 1036.95 -694.53 1035.8 -693.94 1034.62 C-662.55 971.02 -663.42 896.62 -685.94 830 C-689.04 820.89 -692.21 811.81 -695.43 802.74 C-717.5 740.52 -726.73 674.77 -698.28 612.79 C-688.26 591.87 -674.32 573.53 -658.67 556.54 C-658.36 556.2 -658.36 556.2 -656.81 554.5 C-656.31 553.97 -655.82 553.45 -655.3 552.91 C-651.08 547.02 -650.04 540.27 -648.69 533.31 C-643.97 510.53 -635.21 490.08 -621.94 471 C-621.21 469.96 -620.49 468.91 -619.74 467.84 C-607.93 451.7 -593.35 439.22 -576.94 428 C-567.39 421.34 -562.35 413.81 -558.06 403.06 C-553.95 393.13 -549.46 383.41 -544.88 373.69 C-544.71 373.33 -544.71 373.33 -543.87 371.54 C-516.46 313.28 -484.86 256.08 -440.54 208.81 C-438.55 206.67 -436.64 204.5 -434.74 202.29 C-430.38 197.29 -425.7 192.62 -421 187.94 C-420.57 187.51 -420.57 187.51 -418.41 185.33 C-413.41 180.35 -408.31 175.58 -402.94 171 C-401.78 169.99 -400.63 168.98 -399.47 167.96 C-386.16 156.34 -372.78 145.03 -358.22 134.98 C-355.36 133.01 -352.54 130.99 -349.75 128.93 C-330.71 114.87 -310.66 102.41 -289.94 91 C-289.44 90.73 -289.44 90.73 -286.94 89.34 C-265.2 77.33 -243.12 65.94 -219.88 57.13 C-217.12 56.07 -214.37 54.99 -211.62 53.91 C-150.06 29.69 -87.23 11.25 -21.81 1 C-21.48 0.95 -21.48 0.95 -19.78 0.68 C-3.59 -1.85 -3.59 -1.85 0 0 Z M-429.94 635 C-429.96 636.26 -429.98 637.52 -430 638.81 C-430.01 639.52 -430.02 640.23 -430.04 640.96 C-429.94 643 -429.94 643 -428.94 646 C-427.74 654.47 -427.74 663.03 -427.75 671.56 C-427.75 672.22 -427.75 672.88 -427.75 673.56 C-427.77 683.46 -428.13 693.18 -429.63 702.97 C-429.94 705.05 -430.22 707.13 -430.49 709.21 C-434.26 736.21 -444.59 761.34 -455.33 786.2 C-461.7 800.98 -466.87 815.63 -470 831.44 C-470.15 832.13 -470.29 832.82 -470.44 833.54 C-471 836.71 -471.06 838.71 -469.81 841.71 C-467.72 844.26 -465.56 846.14 -462.94 848.12 C-458.07 851.85 -458.07 851.85 -456.38 853.8 C-454.94 855 -454.94 855 -452.9 854.99 C-450.11 853.58 -449.71 852 -448.56 849.12 C-440 829 -428.21 815.66 -407.94 807 C-399.74 803.98 -391.05 802.07 -382.69 805.44 C-369.25 812.17 -356.72 821.63 -344.94 830.91 C-328.18 844.08 -328.18 844.08 -319.94 845 C-315.38 843.33 -314.02 840.6 -311.97 836.36 C-310.15 832.22 -308.7 827.97 -307.25 823.69 C-307.1 823.24 -307.1 823.24 -306.32 820.98 C-305.18 817.66 -304.05 814.33 -302.94 811 C-300.96 811.33 -298.98 811.66 -296.94 812 C-295.09 827 -293.25 842.56 -302.56 855.25 C-306.43 859.86 -310.48 862.57 -315.94 865 C-316.6 865.33 -317.26 865.66 -317.94 866 C-327.37 867.51 -334.3 864.32 -341.94 859 C-349.4 853.48 -356.44 847.44 -363.25 841.12 C-367.97 836.82 -373.05 832.59 -378.94 830 C-381.76 830.32 -381.76 830.32 -383.94 831 C-384.06 831.38 -384.06 831.38 -384.69 833.31 C-385.1 834.53 -385.51 835.75 -385.94 837 C-386.17 837.82 -386.4 838.65 -386.64 839.5 C-389.67 849.24 -394.98 856.15 -404.06 861.03 C-409.56 863.78 -415.04 865.9 -421.05 867.2 C-422.94 868 -422.94 868 -424.2 870.08 C-424.45 870.71 -424.69 871.35 -424.94 872 C-375.47 905.94 -317.12 901.05 -259.71 901.18 C-257.26 901.19 -254.82 901.2 -252.37 901.21 C-248.46 901.23 -244.55 901.23 -240.64 901.23 C-239.19 901.23 -237.73 901.23 -236.28 901.24 C-221.72 901.31 -207.91 900.29 -196.72 889.97 C-185.44 877.48 -176.5 860.62 -176.77 843.52 C-177.1 838.66 -178.11 833.95 -179.12 829.19 C-179.38 827.98 -179.63 826.77 -179.9 825.53 C-186.56 794.48 -194.01 763.18 -203.94 733 C-204.19 732.23 -204.44 731.45 -204.7 730.65 C-209.65 715.78 -216.53 701.8 -226.94 690 C-227.88 688.88 -228.82 687.76 -229.75 686.64 C-238.12 676.65 -247 667.45 -256.94 659 C-258.42 657.73 -259.9 656.46 -261.38 655.19 C-262.03 654.62 -262.69 654.06 -263.37 653.48 C-264.94 652 -264.94 652 -265.94 650 C-266.93 650 -267.92 650 -268.94 650 C-267.95 655.28 -266.82 660.5 -265.52 665.71 C-261.31 682.77 -259.61 699.92 -258.67 717.43 C-258.26 724.76 -257.47 731.82 -255.94 739 C-258.32 738.69 -258.32 738.69 -260.94 738 C-262.46 735.58 -263.61 733.4 -264.75 730.81 C-265.44 729.34 -266.14 727.87 -266.84 726.4 C-267.01 726.03 -267.01 726.03 -267.9 724.16 C-279.17 700.79 -295.94 679.53 -318.94 667 C-319.54 666.67 -320.14 666.34 -320.76 666 C-341.16 655.11 -364.27 650.28 -386.55 644.66 C-397.37 641.93 -408.13 639.07 -418.86 635.98 C-419.78 635.72 -420.7 635.45 -421.64 635.18 C-422.04 635.06 -422.04 635.06 -424.03 634.48 C-426.56 633.84 -427.58 633.82 -429.94 635 Z M-438.94 1048 C-439.23 1050.45 -439.35 1052.73 -439.38 1055.19 C-440.89 1095.35 -455.84 1138.25 -476.48 1172.49 C-478.79 1176.47 -479.09 1179.56 -479.2 1184.1 C-479.24 1185.36 -479.27 1186.63 -479.3 1187.94 C-479.34 1189.34 -479.37 1190.74 -479.4 1192.14 C-479.44 1193.59 -479.48 1195.05 -479.52 1196.51 C-479.6 1199.61 -479.68 1202.72 -479.75 1205.83 C-479.96 1213.97 -480.18 1222.12 -480.41 1230.27 C-480.42 1230.68 -480.42 1230.68 -480.47 1232.73 C-482.07 1290.73 -485.97 1347.95 -494.73 1405.34 C-496.26 1415.5 -497.13 1425.67 -497.06 1435.94 C-497.06 1436.69 -497.06 1437.45 -497.05 1438.23 C-496.97 1447.4 -496.85 1456.68 -494.55 1465.6 C-494.12 1467.27 -493.71 1468.95 -493.32 1470.62 C-491.55 1478 -489.34 1485.12 -486.75 1492.25 C-486.36 1493.34 -485.96 1494.43 -485.55 1495.55 C-482.28 1504.4 -478.47 1512.74 -473.94 1521 C-473.63 1521.58 -473.63 1521.58 -472.08 1524.52 C-463.7 1539.91 -452.66 1553.28 -440.3 1565.64 C-438.99 1566.95 -437.69 1568.27 -436.45 1569.63 C-428.71 1577.98 -417.87 1586.59 -406.94 1590 C-404.76 1589.29 -404.76 1589.29 -402.94 1588 C-400.94 1581.02 -402.9 1576.39 -405.94 1570 C-407.66 1566.99 -409.58 1564.15 -411.56 1561.31 C-412.09 1560.54 -412.61 1559.77 -413.15 1558.98 C-415.21 1555.95 -417.29 1552.94 -419.37 1549.93 C-438 1523 -442.37 1494.4 -436.98 1462.29 C-430.57 1428.03 -430.57 1428.03 -421.94 1422 C-418.74 1422.06 -417.39 1422.54 -415.13 1424.83 C-406.19 1438.12 -401.49 1452.7 -396.61 1467.8 C-388.89 1491.63 -388.89 1491.63 -379.94 1497 C-376.75 1497.88 -376.75 1497.88 -373.94 1498 C-371.94 1496 -371.94 1496 -371.7 1493.8 C-371.83 1482.26 -372.54 1470.76 -373.25 1459.25 C-373.32 1458.15 -373.39 1457.04 -373.46 1455.9 C-373.87 1449.27 -374.3 1442.64 -374.74 1436.01 C-374.86 1434.1 -374.99 1432.19 -375.11 1430.28 C-377.3 1396.43 -377.3 1396.43 -383.94 1382 C-384.28 1381.24 -384.63 1380.48 -384.98 1379.7 C-390.13 1368.56 -396.2 1357.96 -402.31 1347.32 C-424.48 1308.3 -412.44 1270.46 -403.25 1228.69 C-389.74 1167.23 -398.43 1104.04 -432 1050.31 C-432.94 1048.85 -433.91 1047.4 -434.94 1046 C-435.94 1046 -435.94 1046 -438.94 1048 Z " fill="#7c2222" transform="translate(919.9375,569)"/>
<path d="M0 0 C12.35 3.47 24.8 6.29 37.52 8.01 C41.2 8.53 44.37 9.01 47.56 11 C47.5 11.68 47.43 12.36 47.37 13.06 C47.56 16 47.56 16 48.9 18.86 C51.33 24.35 52.2 30.25 53.31 36.12 C53.54 37.29 53.78 38.46 54.02 39.66 C54.23 40.79 54.45 41.91 54.67 43.07 C54.77 43.58 54.77 43.58 55.26 46.16 C55.56 49.05 55.29 51.2 54.56 54 C51.59 53.67 48.62 53.34 45.56 53 C45.23 54.32 44.9 55.64 44.56 57 C45.86 57.08 47.16 57.16 48.5 57.25 C53.7 57.58 57.91 59.81 62.56 62 C63.08 62.24 63.08 62.24 65.69 63.45 C86.88 73.27 106.56 83.99 124.56 99 C124.84 99.23 124.84 99.23 126.27 100.4 C141.65 113.04 155 126.77 166.56 143 C167.02 143.64 167.48 144.29 167.96 144.95 C174.52 154.17 179.78 163.76 184.56 174 C184.81 174.54 184.81 174.54 186.09 177.28 C187.27 179.84 188.44 182.41 189.56 185 C189.93 185.85 190.3 186.7 190.68 187.58 C191.87 190.85 191.81 193.55 191.56 197 C191.4 197.31 191.4 197.31 190.58 198.89 C189.36 201.4 189.15 203.47 188.93 206.25 C188.86 207.14 188.78 208.03 188.71 208.95 C188.66 209.63 188.61 210.3 188.56 211 C185.74 208.19 182.93 205.36 180.14 202.51 C174 196.26 167.93 190.21 160.95 184.89 C158.2 182.72 155.68 180.38 153.12 178 C148.87 174.1 144.52 170.63 139.81 167.32 C137.27 165.5 134.77 163.66 132.27 161.78 C121.73 153.83 111 146.58 99.56 140 C99.15 139.76 99.15 139.76 97.08 138.57 C82.14 130.02 67.31 123.14 51 117.62 C49.97 117.28 48.95 116.93 47.89 116.58 C42.75 114.89 37.93 113.61 32.56 113 C30.54 112.38 28.54 111.72 26.56 111 C27.63 114.01 28.57 115 31.28 116.81 C34.63 119.05 37.52 121.55 40.43 124.31 C41.41 125.23 42.39 126.14 43.36 127.05 C43.87 127.53 44.38 128 44.9 128.49 C46.71 130.14 48.55 131.74 50.4 133.34 C67.41 148.17 91.55 170.85 96.56 194 C95.9 194.33 95.24 194.66 94.56 195 C93.9 194.5 93.25 194.01 92.57 193.5 C64.75 172.78 29.06 165.15 -4.4 157.9 C-32.87 151.72 -58.6 136.66 -80.78 118.11 C-82.44 117 -82.44 117 -85.44 117 C-84.2 123.15 -82.55 129.01 -80.5 134.94 C-79.97 136.52 -79.43 138.1 -78.9 139.68 C-78.65 140.43 -78.39 141.17 -78.13 141.94 C-74.06 154.07 -71.72 166.44 -69.44 179 C-69.26 179.93 -69.07 180.87 -68.88 181.83 C-68.12 187.32 -68.04 192.85 -67.84 198.39 C-67.8 199.29 -67.76 200.2 -67.72 201.13 C-67.69 201.94 -67.66 202.76 -67.63 203.6 C-67.44 206 -67.44 206 -66.93 208.46 C-61.04 238.87 -71.57 269.64 -82.91 297.24 C-85.64 303.92 -88.26 310.64 -90.89 317.37 C-91.79 319.69 -92.71 322.01 -93.62 324.33 C-96.59 331.9 -99.33 339.45 -101.6 347.27 C-102.42 349.92 -103.39 352.44 -104.44 355 C-106.05 360.03 -107.03 365.04 -107.88 370.25 C-108.44 373 -108.44 373 -109.5 375.91 C-110.56 379.39 -110.64 382.25 -110.57 385.88 C-110.55 387.03 -110.53 388.18 -110.51 389.37 C-110.49 390.24 -110.47 391.1 -110.44 392 C-111.76 392.33 -113.08 392.66 -114.44 393 C-115.47 389.92 -115.64 387.48 -115.82 384.25 C-116.08 380.59 -116.36 377.6 -118 374.31 C-119.64 370.55 -119.57 368.06 -119.42 364.05 C-119.45 361.37 -120.42 359.46 -121.44 357 C-125.57 331.26 -121.78 303.94 -118.92 278.28 C-118.88 277.92 -118.88 277.92 -118.69 276.13 C-118.52 274.7 -118.35 273.27 -118.16 271.83 C-117.43 265.96 -117.31 260.19 -117.34 254.28 C-117.35 253.29 -117.35 252.31 -117.35 251.29 C-117.35 248.17 -117.37 245.05 -117.38 241.94 C-117.38 239.81 -117.39 237.68 -117.39 235.56 C-117.4 230.37 -117.42 225.19 -117.44 220 C-118.76 220 -120.08 220 -121.44 220 C-121.47 220.64 -121.5 221.28 -121.53 221.94 C-122.04 229.75 -123.86 236.74 -126.19 244.19 C-126.58 245.47 -126.98 246.75 -127.37 248.04 C-129.74 255.78 -132.24 263.47 -134.79 271.15 C-134.93 271.59 -134.93 271.59 -135.66 273.78 C-137.06 278.04 -138.48 282.29 -139.92 286.54 C-146.07 304.84 -149.15 322.12 -148.88 341.44 C-148.87 342.33 -148.87 343.22 -148.86 344.13 C-148.76 359.3 -148.48 374.54 -143.44 389 C-143.31 389.64 -143.31 389.64 -142.63 392.88 C-135.42 425.75 -118.58 454.12 -96.44 479 C-95.96 479.55 -95.47 480.1 -94.97 480.67 C-86.88 489.78 -86.88 489.78 -84.44 491 C-84.44 491.66 -84.44 492.32 -84.44 493 C-83.45 493 -82.46 493 -81.44 493 C-81.4 491.7 -81.36 490.4 -81.32 489.06 C-81.29 488.33 -81.27 487.6 -81.25 486.85 C-81.42 484.35 -81.81 482.21 -82.38 479.79 C-83.49 475 -84.11 470.26 -84.57 465.38 C-84.65 464.49 -84.74 463.6 -84.82 462.69 C-85.74 452.14 -85.63 441.58 -85.44 431 C-83.23 430.31 -83.23 430.31 -80.44 430 C-78.18 431.2 -78.18 431.2 -75.87 433.02 C-70.38 437.12 -64.63 440.4 -58.63 443.69 C-56.41 444.91 -54.2 446.14 -51.98 447.36 C-50.88 447.97 -49.78 448.58 -48.65 449.21 C-45.67 450.87 -42.72 452.57 -39.78 454.29 C-14.28 469.22 10 477.27 39.43 479.62 C40.18 479.69 40.93 479.75 41.69 479.81 C53.08 480.77 64.43 481.41 75.86 481.62 C89.37 481.93 89.37 481.93 94.56 484 C97.1 487.06 98.26 490.26 99.56 494 C99.67 494.31 99.67 494.31 100.24 495.88 C106.72 513.67 112.04 532.2 114.56 551 C114.66 551.77 114.76 552.53 114.87 553.32 C119.68 590.9 115.27 627.6 105.56 664 C104.24 664 102.92 664 101.56 664 C101.46 663.35 101.36 662.7 101.25 662.03 C97.36 637.1 97.36 637.1 93.56 625 C93.33 624.26 93.1 623.53 92.86 622.77 C84.26 595.72 71.15 571.36 51.8 550.43 C50.3 548.8 48.83 547.15 47.38 545.47 C42.02 539.28 36.26 533.74 29.56 529 C28.9 529 28.24 529 27.56 529 C28.52 534.34 29.49 539.68 30.56 545.01 C32.54 555.02 34 564.95 34.81 575.12 C34.89 576.13 34.97 577.14 35.05 578.17 C37.26 609.12 32.51 639.18 24.56 669 C23.24 669 21.92 669 20.56 669 C20.46 668.51 20.46 668.51 19.96 666.01 C13.13 632.91 2.48 600.2 -16.44 572 C-16.85 571.4 -17.25 570.79 -17.67 570.17 C-28.59 554.02 -41.86 540.29 -55.69 526.62 C-57.23 525.1 -58.76 523.57 -60.3 522.05 C-64.01 518.36 -67.72 514.68 -71.44 511 C-72.43 511.33 -73.42 511.66 -74.44 512 C-74.44 512.73 -74.43 513.45 -74.43 514.2 C-74.39 521.08 -74.36 527.96 -74.34 534.85 C-74.33 538.38 -74.31 541.92 -74.29 545.46 C-74.26 549.54 -74.25 553.62 -74.25 557.7 C-74.24 558.33 -74.24 558.33 -74.21 561.49 C-74.21 568.29 -74.68 574.69 -75.96 581.37 C-76.74 585.62 -77.03 589.89 -77.38 594.19 C-78.57 607.59 -80.81 620.49 -84.48 633.44 C-85.19 636.07 -85.81 638.66 -86.37 641.32 C-89.85 657.24 -96.33 672.41 -103.44 687 C-103.83 687.8 -104.22 688.6 -104.62 689.43 C-110.27 700.87 -116.8 711.49 -124.08 721.96 C-125.94 724.74 -127.61 727.63 -129.25 730.54 C-129.65 731.02 -130.04 731.5 -130.44 732 C-131.43 732 -132.42 732 -133.44 732 C-133.3 730.75 -133.16 729.5 -133.01 728.21 C-129.43 695.75 -125.87 656.94 -134.44 625 C-134.66 623.15 -134.83 621.3 -134.94 619.44 C-135.28 615.05 -136.19 611.22 -137.44 607 C-137.63 605.46 -137.8 603.92 -137.94 602.38 C-138.28 598.88 -139.09 596.25 -140.44 593 C-140.77 591.48 -141.08 589.96 -141.37 588.44 C-147.9 555.01 -160.38 522.71 -173.91 491.56 C-183.82 468.56 -192.89 445.33 -199.74 421.21 C-200.05 420.16 -200.36 419.1 -200.68 418.01 C-200.95 417.07 -201.22 416.12 -201.49 415.15 C-201.81 414.44 -202.12 413.73 -202.44 413 C-203.43 412.67 -204.42 412.34 -205.44 412 C-205.46 412.71 -205.48 413.42 -205.5 414.15 C-205.6 417.41 -205.71 420.68 -205.82 423.94 C-205.85 425.05 -205.88 426.17 -205.91 427.32 C-206.14 433.8 -206.86 439.72 -208.44 446 C-208.75 447.87 -209.04 449.75 -209.32 451.62 C-213.94 479.58 -225.95 503.73 -244.44 525 C-245.43 524.67 -246.42 524.34 -247.44 524 C-247.32 523.33 -247.2 522.66 -247.07 521.98 C-241.34 489.01 -240.94 454.02 -246.44 421 C-246.64 419.78 -246.84 418.56 -247.04 417.3 C-250.09 399.07 -254.5 381.52 -260.44 364 C-260.72 363.19 -260.99 362.37 -261.28 361.53 C-264.19 352.95 -267.11 344.38 -270.07 335.82 C-279.88 307.44 -288.1 279.49 -287.88 249.25 C-287.88 248.38 -287.87 247.5 -287.87 246.6 C-287.8 233.05 -286.97 220.15 -283.44 207 C-283.23 206.17 -283.02 205.35 -282.81 204.49 C-275.48 175.87 -261.38 151.59 -241.44 130 C-239.92 128.29 -238.4 126.58 -236.88 124.88 C-233.49 121.08 -229.96 117.57 -226.17 114.18 C-222.09 109.03 -220.92 102.3 -219.57 96 C-213.14 67.71 -202.04 45.61 -181.44 25 C-180.71 24.24 -179.97 23.48 -179.21 22.7 C-130.85 -23.93 -58.8 -17.27 0 0 Z " fill="#d3cfc8" transform="translate(527.44140625,1021)"/>
<path d="M0 0 C1.08 0.28 2.17 0.57 3.28 0.86 C4.4 1.16 5.53 1.46 6.68 1.77 C8.77 2.29 10.85 2.82 12.94 3.34 C18.92 4.85 24.9 6.38 30.88 7.91 C33.43 8.56 35.98 9.2 38.52 9.84 C52.28 13.31 65.92 16.99 79.4 21.45 C80.49 21.8 81.57 22.16 82.69 22.53 C121.74 35.78 143.2 64.79 161.06 100.45 C161.33 101 161.33 101 162.68 103.77 C164 103.77 165.32 103.77 166.68 103.77 C166.55 103.19 166.43 102.61 166.29 102.02 C164.57 93.56 164.04 85.12 163.48 76.52 C162.2 57.36 160.2 38.74 154.42 20.35 C153.68 17.77 153.68 17.77 153.68 14.77 C154.67 14.77 155.66 14.77 156.68 14.77 C158.03 16.42 159.36 18.09 160.68 19.77 C161.81 20.81 162.95 21.83 164.12 22.83 C174.64 31.86 184.59 41.29 193.68 51.77 C194.11 52.26 194.11 52.26 196.27 54.74 C217.5 80.69 224.23 114.5 232.07 146.3 C232.71 148.89 233.36 151.48 234 154.07 C235.14 158.64 236.27 163.2 237.4 167.78 C237.83 169.53 238.26 171.28 238.7 173.04 C244.81 197.79 249.34 218.05 235.89 241.25 C229.18 252.22 220.57 261.61 207.68 264.77 C199.97 266.04 192.28 265.91 184.49 265.9 C182.99 265.9 181.49 265.9 179.99 265.9 C176 265.91 172.01 265.9 168.02 265.9 C165.55 265.89 163.08 265.89 160.61 265.89 C46.82 265.77 46.82 265.77 16.68 247.77 C17.47 245.85 17.47 245.85 18.68 243.77 C20.51 243.02 22.35 242.29 24.21 241.66 C38.03 236.67 48.55 228.61 54.87 215.27 C55.84 213.11 56.78 210.95 57.68 208.77 C62.69 208.77 64.65 210.78 68.31 213.83 C69.56 214.84 70.82 215.86 72.07 216.87 C72.69 217.36 73.3 217.86 73.93 218.37 C77.71 221.38 81.63 224.14 85.68 226.77 C86.34 227.2 87 227.63 87.69 228.08 C93.15 231.26 98.46 231.67 104.68 230.77 C113.81 227.83 120.31 221.11 124.68 212.77 C126.61 207.38 126.97 202.65 126.87 197.02 C126.86 196.23 126.86 195.45 126.85 194.64 C126.77 188.65 126.42 182.71 125.68 176.77 C123.7 176.44 121.72 176.11 119.68 175.77 C119.43 176.53 119.18 177.29 118.92 178.07 C117.26 183.01 115.55 187.92 113.81 192.83 C113.47 193.81 113.13 194.79 112.78 195.8 C109.35 205.42 109.35 205.42 105.68 208.77 C102.67 209.95 101.22 209.93 98.13 208.97 C89.63 204.68 82.37 199.23 74.85 193.43 C40.52 167.17 40.52 167.17 25.68 168.77 C7.35 172.5 -7.72 182.3 -18.32 197.77 C-21.29 202.85 -23.99 208.19 -26.04 213.71 C-27.84 218.46 -27.84 218.46 -30.2 219.97 C-33.5 219.65 -34.91 217.85 -37.26 215.58 C-39.8 213.14 -42.21 210.84 -45.07 208.78 C-47.77 206.36 -47.91 205.3 -48.32 201.77 C-48.08 199.4 -48.08 199.4 -47.57 196.95 C-47.38 196.03 -47.18 195.11 -46.99 194.17 C-46.77 193.19 -46.55 192.21 -46.32 191.2 C-46.2 190.69 -46.2 190.69 -45.62 188.09 C-41.85 171.9 -35.62 156.96 -28.95 141.8 C-24.19 130.95 -19.87 120.07 -16.32 108.77 C-16.19 108.36 -16.19 108.36 -15.52 106.28 C-8.3 83.54 -5.12 60.53 -5.19 36.7 C-5.19 35.42 -5.19 34.13 -5.18 32.81 C-5.2 14.12 -5.2 14.12 -7.32 7.77 C-7.45 5.09 -7.36 2.45 -7.32 -0.23 C-4.49 -1.65 -3.03 -0.81 0 0 Z M64.56 53.33 C49.4 68.77 42.29 88.17 42.37 109.77 C42.36 110.23 42.36 110.23 42.32 112.56 C42.32 120.24 43.16 127.66 48.12 133.77 C54.7 138.9 61.67 138.51 69.68 137.77 C84.5 135.6 97.95 129.47 107.43 117.57 C110.71 112.87 114.39 107.4 115.68 101.77 C114.78 99.5 114.78 99.5 113.68 97.77 C113.19 97.93 113.19 97.93 110.68 98.77 C110.68 99.43 110.68 100.09 110.68 100.77 C110.15 101.01 109.61 101.25 109.06 101.5 C106.07 103.09 103.43 105.03 100.68 107.02 C85.48 117.77 85.48 117.77 79.68 117.77 C79.35 116.78 79.02 115.79 78.68 114.77 C79.36 114.58 80.04 114.39 80.74 114.2 C89.89 109.73 94 100.77 97.5 91.64 C101.73 77.48 96.43 63.24 91.62 49.95 C91.37 49.27 91.13 48.58 90.88 47.87 C89.54 44.32 88.92 42.93 85.68 40.77 C77.26 40.77 70.35 47.66 64.56 53.33 Z M182.89 171.44 C181.91 172.31 180.94 173.18 179.93 174.08 C179.39 174.56 178.85 175.05 178.29 175.55 C176.39 177.26 174.54 179.01 172.68 180.77 C171.95 181.45 171.21 182.14 170.45 182.85 C161.07 191.69 152.49 200.11 146.68 211.77 C146.26 212.58 145.84 213.4 145.4 214.25 C141.49 222.36 140.3 230.85 139.68 239.77 C139.6 240.6 139.53 241.43 139.45 242.29 C139.4 243.09 139.35 243.88 139.31 244.7 C139.26 245.41 139.21 246.12 139.16 246.86 C139.68 248.77 139.68 248.77 142.21 250.52 C142.61 250.73 142.61 250.73 144.68 251.77 C171.74 228.35 184.22 205.63 191.68 170.77 C187.9 169.66 186.33 169.38 182.89 171.44 Z " fill="#f3f2eb" transform="translate(497.318115234375,1204.23388671875)"/>
<path d="M0 0 C17.61 10.79 32.33 26.25 46.88 40.75 C47.37 41.25 47.87 41.74 48.39 42.25 C54.14 47.99 59.75 53.79 65 60 C65.8 60.93 66.59 61.85 67.41 62.81 C102.82 104.91 136.53 156.6 150.39 210.38 C151 212 151 212 153 213 C153.51 216.15 153.86 219.2 154.12 222.38 C154.21 223.36 154.29 224.35 154.38 225.37 C155.04 234.36 155.24 243.36 155.3 252.37 C155.31 253.96 155.32 255.54 155.34 257.12 C155.36 259.37 155.37 261.61 155.36 263.86 C155.36 264.51 155.36 264.51 155.37 267.81 C155 271 155 271 153.48 272.95 C152.99 273.29 152.5 273.64 152 274 C151.07 273.44 150.15 272.88 149.2 272.3 C130.82 261.29 111.97 250.95 92.45 242.11 C90.77 241.35 89.1 240.59 87.44 239.81 C71.99 232.67 56.21 226.56 40.3 220.55 C26.65 215.4 13.04 210.17 -0.55 204.86 C-2.73 204.01 -4.91 203.16 -7.09 202.31 C-76.57 175.32 -76.57 175.32 -92.79 140.27 C-101.59 120.01 -101.66 98.9 -100.62 77.25 C-100.59 76.51 -100.56 75.77 -100.53 75.01 C-100.05 66.4 -100.05 66.4 -98 63 C-94.6 61.39 -91.03 60.61 -87.38 59.75 C-64.37 53.66 -43.22 44.47 -25 29 C-24.15 28.33 -23.3 27.67 -22.43 26.98 C-13.53 19.7 -6.84 9.16 0 0 Z " fill="#f3f2eb" transform="translate(1450,700)"/>
<path d="M0 0 C2.4 2.22 4.01 4.46 5.64 7.29 C5.88 7.71 5.88 7.71 7.12 9.87 C42.99 73.19 43.26 136.79 27.83 206.35 C26.13 214.16 24.66 222.01 23.25 229.88 C23.04 231.05 22.83 232.22 22.61 233.42 C17.4 263.02 22.82 283.4 37.88 309.25 C42.02 316.38 45.92 323.57 49.5 331 C49.9 331.81 50.29 332.62 50.7 333.46 C56.03 344.74 58.61 355.79 59.56 368.19 C59.68 369.57 59.79 370.96 59.91 372.34 C61.03 385.97 61.85 399.61 62.69 413.25 C62.75 414.33 62.82 415.42 62.89 416.53 C64.6 444.54 64.6 444.54 64 450 C63.34 450.66 62.68 451.32 62 452 C57.2 452 54.19 450.3 50.82 447.08 C42.81 437.91 39.94 424.26 36.4 412.85 C32.2 399.4 27.41 386.76 18 376 C14.23 376.51 12.38 377.02 10 380 C8.93 382.31 8 384.55 7.12 386.94 C6.87 387.64 6.61 388.33 6.35 389.05 C-3.86 417.73 -8.78 453.07 3.51 481.91 C8.35 491.94 14.22 500.91 20.7 509.94 C34.75 529.57 34.75 529.57 33.69 538.5 C33.46 539.65 33.23 540.81 33 542 C28.72 544.22 28.72 544.22 25.6 543.27 C11.1 534.94 -2.29 523.83 -13 511 C-13.38 510.56 -13.38 510.56 -15.3 508.36 C-32.53 488.32 -44.02 465.59 -52.81 440.81 C-53.01 440.28 -53.01 440.28 -53.98 437.58 C-56.28 430.95 -57.72 424.55 -58.61 417.59 C-59 415 -59 415 -60 413 C-61.62 399.55 -61.66 385.72 -60.17 372.27 C-60.08 371.45 -60 370.64 -59.91 369.81 C-58.92 360.93 -57.7 352.09 -56.46 343.25 C-51.52 307.93 -51.52 307.93 -50 292 C-49.88 290.75 -49.76 289.51 -49.64 288.23 C-47.24 262.5 -46.33 236.69 -45.38 210.88 C-45.34 210.03 -45.31 209.19 -45.28 208.32 C-45.09 203.32 -44.91 198.33 -44.74 193.34 C-44.68 191.69 -44.62 190.05 -44.56 188.41 C-44.24 179.91 -43.98 171.42 -43.92 162.92 C-43.9 159.37 -43.85 155.81 -43.81 152.26 C-43.8 150.58 -43.79 148.89 -43.8 147.21 C-43.85 137.04 -42.9 129.64 -37 121 C-18.67 85.82 -5.68 46.87 -3.22 7.11 C-3 4.97 -2.69 3.04 -2 1 C-1.34 0.67 -0.68 0.34 0 0 Z " fill="#f3f2eb" transform="translate(484,1615)"/>
<path d="M0 0 C-0.08 0.25 -0.08 0.25 -0.46 1.49 C-6.36 29.11 -2.36 61.69 12 86 C14.46 89.54 17.16 92.77 20 96 C20.65 96.82 21.31 97.64 21.98 98.48 C38.96 119 68.26 127.55 92.19 136.81 C94.68 137.78 97.17 138.76 99.66 139.73 C113.08 144.96 126.53 150.13 140 155.25 C244.01 194.8 244.01 194.8 257 215 C257.89 219.13 258.13 223.07 258.13 227.28 C258.13 228.45 258.14 229.62 258.14 230.83 C258.13 232.04 258.13 233.25 258.12 234.5 C258.13 235.71 258.13 236.92 258.14 238.17 C258.14 238.75 258.14 238.75 258.13 241.72 C258.13 242.78 258.13 243.84 258.13 244.94 C258 248.03 257.57 250.96 257 254 C253.09 255.3 250.83 254.78 247.13 253.1 C242.59 250.75 238.36 247.89 234.06 245.12 C213.2 231.93 191.48 221.14 169 211 C166.74 209.97 164.47 208.94 162.21 207.9 C148.67 201.77 134.99 196.11 121.13 190.77 C114.77 188.31 108.44 185.78 102.12 183.25 C95.46 180.58 88.79 177.94 82.11 175.31 C80.06 174.5 78.01 173.69 75.96 172.88 C72.85 171.66 69.73 170.43 66.62 169.21 C14.54 148.74 14.54 148.74 1 136 C0.43 135.48 -0.13 134.96 -0.72 134.42 C-24.84 112.05 -38.41 81.41 -40.13 48.48 C-40.33 42.89 -40.37 37.31 -40.37 31.72 C-40.38 28.78 -40.41 25.84 -40.45 22.9 C-40.46 21.03 -40.46 19.15 -40.46 17.27 C-40.48 16.4 -40.49 15.52 -40.5 14.62 C-40.46 8.61 -40.46 8.61 -38.09 5.47 C-35.95 3.97 -34.56 3.33 -32 2.88 C-31.61 2.8 -31.61 2.8 -29.61 2.43 C-29.18 2.36 -29.18 2.36 -27 2 C-26.08 1.83 -25.15 1.65 -24.2 1.47 C-4.28 -2.14 -4.28 -2.14 0 0 Z " fill="#7c2222" transform="translate(1352,765)"/>
<path d="M0 0 C2.73 0.85 4.29 1.81 6.5 3.61 C6.88 3.93 6.88 3.93 8.83 5.51 C9.73 6.27 10.63 7.02 11.56 7.8 C12.1 8.25 12.65 8.71 13.21 9.18 C19.6 14.52 25.86 19.89 31.65 25.89 C33.4 27.65 35.21 29.26 37.1 30.86 C41.96 35.08 46.52 39.58 51.07 44.12 C52.49 45.54 53.91 46.95 55.34 48.36 C60.79 53.8 65.83 59.4 70.64 65.42 C72.8 68.1 75.07 70.61 77.43 73.11 C81.66 77.71 85.56 82.47 89.36 87.42 C91.39 90.04 93.42 92.64 95.55 95.18 C101.74 102.55 107.14 110.28 112.43 118.3 C112.87 118.95 113.3 119.61 113.75 120.28 C119.13 128.4 124.4 136.57 129.31 144.99 C129.76 145.75 130.2 146.52 130.66 147.3 C133.56 152.41 133.56 152.41 133.56 155.8 C134.22 155.8 134.88 155.8 135.56 155.8 C137.97 157.94 139.38 159.73 139.92 162.96 C140.05 165.68 140.05 168.37 140.01 171.1 C140.01 172.13 140.01 173.17 140.01 174.23 C140.01 177.65 139.98 181.06 139.95 184.48 C139.94 186.85 139.94 189.22 139.93 191.58 C139.92 197.82 139.88 204.05 139.83 210.28 C139.79 216.64 139.77 223 139.75 229.37 C139.71 241.84 139.64 254.32 139.56 266.8 C139.23 266.31 139.23 266.31 137.56 263.8 C136.9 264.79 136.24 265.78 135.56 266.8 C133.49 264.73 133.78 260.77 133.43 257.93 C133.33 257.19 133.24 256.46 133.13 255.7 C132.71 252.34 132.47 250.06 133.56 246.8 C132.57 246.47 131.58 246.14 130.56 245.8 C129.72 244.09 129.72 244.09 129.05 241.85 C128.79 241.01 128.53 240.18 128.26 239.32 C128.13 238.86 128.13 238.86 127.43 236.55 C123.85 225.28 119.47 214.55 114.56 203.8 C114.11 202.82 113.66 201.83 113.19 200.82 C94.79 160.88 71.02 122.7 40.97 90.43 C39.1 88.39 37.31 86.34 35.52 84.24 C30.98 79.04 26.1 74.19 21.22 69.33 C19.62 67.74 18.04 66.15 16.45 64.56 C8.6 56.69 0.45 49.4 -8.25 42.49 C-8.58 42.23 -8.58 42.23 -10.24 40.9 C-12.93 38.75 -15.57 36.71 -18.44 34.8 C-17.78 30.28 -16.07 26.37 -14.19 22.24 C-13.55 20.82 -12.92 19.4 -12.29 17.98 C-11.97 17.27 -11.66 16.57 -11.34 15.85 C-9.64 11.97 -8.11 8.01 -6.58 4.06 C-5 0.93 -3.56 -0.29 0 0 Z " fill="#7c2222" transform="translate(1469.44140625,666.19921875)"/>
<path d="M0 0 C0.62 2.06 0.62 2.06 1 4 C0.48 4.3 -0.04 4.61 -0.57 4.92 C-4.98 7.57 -8.43 10.26 -12 14 C-16.49 18.14 -21.06 22.2 -25.69 26.19 C-36.7 35.83 -47.14 46.04 -57.5 56.38 C-57.76 56.63 -57.76 56.63 -59.07 57.94 C-64.93 63.78 -70.66 69.67 -76 76 C-76.8 76.93 -77.59 77.85 -78.41 78.81 C-85 86.65 -91.26 94.72 -97.42 102.9 C-98.43 104.24 -99.44 105.58 -100.46 106.92 C-115.24 126.39 -127.04 147.46 -138.38 169.06 C-138.88 170.01 -139.38 170.97 -139.89 171.95 C-142.81 177.55 -145.52 183.19 -148 189 C-149.98 189 -151.96 189 -154 189 C-151.02 131.63 -129.63 88.11 -88 49 C-84.46 45.83 -80.76 42.9 -77 40 C-76.22 39.35 -75.44 38.71 -74.64 38.04 C-62.73 28.18 -15.69 -7.85 0 0 Z " fill="#7c2222" transform="translate(722,735)"/>
<path d="M0 0 C2.96 2.36 3.85 4.82 5.01 8.37 C5.35 9.42 5.7 10.47 6.06 11.55 C6.41 12.65 6.76 13.74 7.12 14.88 C7.3 15.42 7.3 15.42 8.21 18.18 C12.69 31.87 13.64 43.35 8 57 C4.66 63.51 0.01 68.79 -6 73 C-6.66 73 -7.32 73 -8 73 C-7.67 73.99 -7.34 74.98 -7 76 C3.05 72.12 11.98 67.6 20.11 60.5 C22 59 22 59 24 59 C24 58.34 24 57.68 24 57 C24.99 56.67 25.98 56.34 27 56 C28.18 57.58 28.18 57.58 29 60 C28.15 62.47 27.28 64.48 26.06 66.75 C25.74 67.37 25.41 68 25.08 68.64 C17.99 81.77 7.03 89.49 -7.07 93.98 C-15.9 96.3 -27.56 98.59 -36.19 94.56 C-41.16 90.03 -43.64 83.48 -44.18 76.8 C-44.51 63.91 -43.82 52.35 -40 40 C-39.72 39.07 -39.45 38.14 -39.16 37.19 C-33.86 21.96 -20.88 8.02 -7.25 -0.21 C-4.38 -1.22 -2.86 -0.98 0 0 Z " fill="#7c2222" transform="translate(584,1246)"/>
<path d="M0 0 C-11.27 45.8 -11.27 45.8 -28 63 C-28.31 63.32 -28.31 63.32 -29.91 64.97 C-32.03 67.15 -34.17 69.33 -36.31 71.5 C-37.01 72.21 -37.7 72.91 -38.42 73.64 C-38.75 73.98 -38.75 73.98 -40.43 75.66 C-41.02 76.25 -41.61 76.85 -42.22 77.46 C-44.05 79.04 -45.8 80.02 -48 81 C-50 80.06 -50 80.06 -52 78 C-53.77 60.31 -47.97 42.42 -37.07 28.55 C-34.79 25.95 -32.42 23.47 -30 21 C-29.43 20.41 -28.86 19.83 -28.28 19.22 C-8.13 -1.57 -8.13 -1.57 0 0 Z " fill="#7c2222" transform="translate(689,1375)"/>
<path d="M0 0 C7.69 0.47 13.64 5.36 18.62 10.94 C18.85 11.28 18.85 11.28 20 13 C19.79 13.24 19.79 13.24 18.75 14.44 C17.19 16.73 16.24 18.71 15.19 21.25 C9.2 35.02 -1.81 42.5 -15.41 47.97 C-17.26 48.66 -19.13 49.33 -21 50 C-21.3 50.21 -21.3 50.21 -22.81 51.28 C-25 52 -25 52 -28.09 50.77 C-29.22 50.12 -30.34 49.48 -31.5 48.81 C-32.62 48.18 -33.75 47.55 -34.91 46.89 C-37.4 45.37 -39.71 43.81 -42 42 C-41.37 40.12 -41.37 40.12 -40 38 C-37.35 36.95 -37.35 36.95 -34.06 36.12 C-23.32 33.07 -13.59 28.37 -7.54 18.65 C-4.96 13.82 -3.34 9.22 -2.46 3.81 C-2 2 -2 2 0 0 Z " fill="#d3cfc8" transform="translate(537,1399)"/>
<path d="M0 0 C1.46 2.65 2 3.89 2 7 C2.66 7 3.32 7 4 7 C4.78 9.76 5.13 12.21 5.13 15.08 C5.13 15.87 5.14 16.66 5.14 17.47 C5.14 18.32 5.13 19.16 5.13 20.04 C5.13 20.91 5.13 21.79 5.14 22.69 C5.14 24.53 5.13 26.38 5.13 28.23 C5.13 31.06 5.13 33.88 5.14 36.71 C5.14 38.51 5.13 40.3 5.13 42.1 C5.13 42.94 5.14 43.79 5.14 44.66 C5.13 48.02 5.07 50.79 4 54 C2.06 53.19 2.06 53.19 0 52 C-0.16 51.5 -0.16 51.5 -1 49 C-1.66 49 -2.32 49 -3 49 C-2.84 48.5 -2.67 48 -2.5 47.48 C-1.81 44.08 -1.92 40.75 -1.97 37.3 C-1.99 35.77 -2 34.23 -2.01 32.7 C-2.03 30.29 -2.06 27.89 -2.1 25.49 C-2.32 8.31 -2.32 8.31 0 0 Z " fill="#d3cfc8" transform="translate(1606,926)"/>
<path d="M0 0 C4.29 6.43 6.08 14.54 7.61 22.06 C8.01 24.06 8.49 26.03 9 28 C7.68 28.33 6.36 28.66 5 29 C4.8 28.69 4.8 28.69 3.76 27.1 C3.22 26.28 2.68 25.47 2.12 24.62 C1.59 23.81 1.06 23 0.51 22.16 C-1 20 -1 20 -3 18 C-4.29 13.07 -3.92 8.94 -3 4 C-2.34 3.67 -1.68 3.34 -1 3 C-0.67 2.01 -0.34 1.02 0 0 Z " fill="#f3f2eb" transform="translate(719,1215)"/>
</svg>
